<svg xmlns="http://www.w3.org/2000/svg" viewBox="-350 -250 700 500" height="500" width="1000"  xmlns:v="https://vecta.io/nano"><path fill="red" d="M-500-250H500v500H-500z"/><path d="M-272.734-148.872c-9.52 2.801-19.446 2.061-29.205 2.139-5.434-.322-12.43 1.731-13.795 8.141-4.048 1.305-8.581.543-12.371 2.795-3.643 1.745-5.879 5.811-5.094 10.033-3.786-.158-4.786-5.516-8.23-6.76-1.67-.911-4.382-.533-4.779 1.756-.73 4.025 1.79 8.357 5.334 9.863 3.499 1.528 7.397 1.963 11.137 1.473 1.373-.056 1.922 1.445 2.574 2.443 1.714 2.297 4.57 3.016 7.182 3.346 9.048.894 18.286.219 27.158 2.684 6.766 1.509 13.418 6.633 14.693 14.217 1.248 6.307-1.28 12.875-5.35 17.447-2.698 2.572-5.82 4.588-8.621 7.025-1.742 1.556-3.063 3.569-4.797 5.121-3.282-1.838-4.613-5.751-5.801-9.227-1.93-5.023-1.505-10.837-4.256-15.537-3.609-7.166-10.466-11.595-17.387-14.506-2.768-1.282-4.819 2.393-7.598 2.035-4.222-.68-7.931-3.067-11.668-5.105-6.458-3.405-11.964-8.401-17.377-13.371-5.472-5.019-9.644-11.5-15.576-15.975-4.6-3.941-11.83-2.013-15.326 2.65-2.649 3.908-1.808 9.613 1.158 13.066 8.618 11.429 21.42 18.007 33.713 23.908 5.48 2.739 11.425 4.319 16.787 7.334 1.578.809 3.345 2.251 3.102 4.344-.107 1.662-2.022 1.933-3.25 1.723-8.585-1.888-16.62-5.92-24.021-10.834-6.089-3.935-11.508-9.009-17.877-12.453-5.017-2.015-10.307 2.985-9.955 8.414-.157 4.525 3.575 7.637 7.037 9.447 5.904 3.486 12.25 6.052 18.727 8.055 8.195 2.16 16.559 3.58 24.654 6.162 1.66.593 3.659 1.735 3.883 3.773.16 1.918-1.934 2.43-3.336 2.324-5.065-.29-10.09-1.498-14.801-3.49-8.542-2.676-16.563-6.842-24.859-10.225-2.493-.96-5.526-1.304-7.754.529-3.426 2.611-3.225 8.462-.207 11.346 6.154 5.321 14.074 7.449 21.842 8.242 8.214 2.121 16.623.585 24.92.094 1.543-.115 3.333.74 3.707 2.457.285 1.471-.996 2.542-2.096 3.119-6.484 2.83-13.709 2.806-20.543 1.693-7.668-.922-14.197-5.845-21.715-7.365-2.86-.802-5.992.697-7.639 3.207-1.524 3.251-.051 7.26 2.422 9.504 6.875 5.633 16.015 7.606 24.549 6.83 6.45-.745 12.699-2.724 18.879-4.736 2.668-.892 5.761-2.616 8.488-1.117 1.879 1.624-.248 3.896-1.754 4.744-9.974 7.798-23.133 5.875-34.676 4.711-3.77-.528-7.344-2.141-11.141-2.477-2.716-.104-6.141.734-7.201 3.744-1.102 3.183.873 6.385 3.139 8.33 4.885 4.306 11.214 6.676 17.539 6.932 8.184-.044 16.112-3.158 23.064-7.584 3.359-2.361 7.588-4.522 11.662-3.146 1.947.752 1.352 3.393.008 4.469-4.433 4.162-9.961 6.646-15.187 9.459-3.112 1.82-6.725 2.095-10.184 2.5-8.393.673-16.357-3.813-24.74-2.787-3.214.122-5.704 3.443-4.967 6.795.897 6.542 7.046 10.151 12.506 11.799 7.893 2.771 16.217.433 23.811-2.268 9.107-3.221 14.718-12.093 22.748-17.109 1.656-1.425 4.851-.059 3.738 2.451-2.223 4.753-6.243 8.247-9.859 11.797-5.948 5.2-12.597 10.07-20.33 11.545-7.578 1.649-15.323.448-22.967.898-3.614.288-7.976 1.487-9.4 5.477-1.153 4.207 1.449 8.426 4.621 10.752 6.006 4.975 14.061 6.444 21.449 4.936 10.179-1.623 18.079-9.356 25.143-16.707 5.177-5.177 9.152-11.504 14.109-16.891 1.738-1.731 4.076-3.785 6.621-2.893 2.459 1.309 2.329 4.945 1.023 7.123-4.57 7.195-12.174 11.041-18.045 16.795-1.704 1.777-3.306 4.34-2.516 6.98.906 3.075 3.973 4.697 6.811 5.031 5.836.567 11.707-2.243 15.535-6.871 4.14-5.607 4.409-13.299 8.436-18.969 1.255-1.727 3.412-3.536 5.559-2.543 2.232 1.499 1.932 4.843.834 7.029-2.122 5.237-7.371 7.944-9.805 12.939-1.141 2.135-.414 5.314 1.922 6.109 4.733 1.544 9.096-2.779 11.064-6.959 1.715-3.934 2.124-8.326 3.58-12.346.706-2.056 2.953-4.319 5.033-2.703 3.653 2.778 3.003 8.362.863 11.965-3.642 6.125-7.386 12.355-12.664 17.064-8.218 8.702-21.001 10.014-31.896 7.746-1.947-.941-4.445.319-5.045 2.424.491 5.841 5.483 9.344 8.23 13.975-4.164.922-8.022 3.11-12.289 3.561-4.905.455-10.582 1.106-14.684-2.414-4.294-4.226-5.077-10.98-9.193-15.369-2.775-3.481-7.98-4.253-11.654-1.992-1.467.763-3.121-.037-4.666.277-2.665.263-5.038 2.761-5.264 5.578 1.854-.297 4.153-.904 5.715.521.924 1.878.397 4.418 1.947 6 2.075 2.049 5.351 1.024 7.563 2.814 1.282 1.033.647 3.48-.867 3.869-1.973.529-4.116.463-6.037-.279-3.834-1.543-8.58-.691-11.564 2.352-1.804 1.773-2.153 4.497-2.238 6.971-.139 3.13-3.216 5.447-2.445 8.727.163 1.563 1.478 2.494 2.732 3.057-.063-2.792 1.603-5.065 3.881-6.27 2.894 3.304 7.887 3.35 11.387 1.135 2.879-1.489 5.081-4.615 8.443-4.871 1.964-.18 2.827 2.576 1.508 3.939-3.142 3.815-8.465 4.558-11.479 8.563-2.8 3.269-2.109 8.391.143 11.773 1.432 1.865-.142 4.379 1.043 6.322 1.369 2.955 4.773 3.969 7.65 3.459-.428-1.3-2.315-1.95-2.445-3.578-.054-1.204.127-3.161 1.609-3.205 4.181.756 8.746-1.533 10.654-5.596 1.854-3.634 1.235-7.919 2.135-11.809.524-2.432 3.193-4.382 5.473-3.354 1.634.947 1.848 3.145 2.252 4.877.767 4.358 2.833 9.044 7.133 10.459 2.987.986 6.193 1.041 9.268.967 2.104 2.409 1.115 6.047.35 8.859 4.018-.869 6.289-5.69 5.299-9.752-.846-3.093 2.474-5.072 2.139-8.072-.126-2.185-1.477-4.149-3.195-5.281-3.588-2.049-7.818-1.944-11.67-3.072-2.245-.846-2.142-4.45-.195-5.625 3.386-2.368 7.514-3.059 11.4-4.004 3.923-.879 8.036-1.49 11.982-.41 5.826 1.707 10.759 5.986 16.713 7.26 3.155.761 5.689-2.161 6.074-5.262 1.319-7.258 2.465-14.941 7.111-20.791 2.29-3.255 5.076-6.639 8.992-7.539 2.594-.618 5.238 1.374 5.828 4.059 1.193 4.804-.493 9.66-1.793 14.229-2.564 8.135-4.436 16.751-8.928 23.998-4.039 5.438-10.729 8.769-17.283 8.105-3.915-.242-7.781-1.416-11.721-1.059-1.775.159-3.756 1.359-3.861 3.443-.319 3.746 2.762 6.613 5.75 7.92 5.322 2.328 11.477 2.254 16.764-.148 5.934-2.662 10.503-7.673 15.01-12.389 1.08-.91 2.513-2.462 3.973-1.602 1.243 1.533.928 3.926.053 5.596-3.74 6.613-9.623 12.192-16.822 14.018-4.544 1.3-9.5.272-13.863 2.361-2.67 1.383-2.905 5.617-.725 7.613 3.413 3.649 8.708 3.566 13.178 2.986 8.034-1.721 13.858-8.725 17.611-16.053 1.851-3.151 3.009-7.088 6.146-9.117 1.674-.977 3.681.826 3.119 2.76-.98 7.834-6.095 14.698-12.375 18.707-3.683 2.377-8.906 5.927-7.424 11.293 2.386 5.602 9.875 4.894 13.715 1.422 6.174-5.223 5.568-14.477 8.398-21.627.621-1.89 1.775-5.791 4.258-4.369 3.63 4.248 2.935 10.759 1.199 15.764-2.227 6.058-6.699 10.73-10.121 15.986-.068 1.738 1.315 3.088 2.332 4.303 5.097 5.442 10.901 10.063 16.307 15.141 5.406-5.078 11.21-9.699 16.307-15.141 1.017-1.215 2.4-2.565 2.332-4.303-3.422-5.256-7.894-9.928-10.121-15.986-1.736-5.005-2.431-11.516 1.199-15.764 2.483-1.422 3.637 2.479 4.258 4.369 2.83 7.15 2.224 16.404 8.398 21.627 3.84 3.472 11.329 4.18 13.715-1.422 1.482-5.366-3.741-8.916-7.424-11.293-6.28-4.009-11.395-10.873-12.375-18.707-.562-1.934 1.445-3.737 3.119-2.76 3.137 2.029 4.295 5.966 6.146 9.117 3.753 7.328 9.577 14.332 17.611 16.053 4.47.58 9.765.663 13.178-2.986 2.18-1.996 1.945-6.23-.725-7.613-4.363-2.089-9.319-1.061-13.863-2.361-7.199-1.826-13.082-7.405-16.822-14.018-.875-1.67-1.19-4.063.053-5.596 1.46-.86 2.893.692 3.973 1.602 4.507 4.716 9.076 9.727 15.01 12.389 5.287 2.402 11.442 2.476 16.764.148 2.988-1.307 6.069-4.174 5.75-7.92-.105-2.084-2.086-3.284-3.861-3.443-3.94-.357-7.806.817-11.721 1.059-6.554.664-13.244-2.667-17.283-8.105-4.492-7.247-6.364-15.863-8.928-23.998-1.3-4.569-2.986-9.425-1.793-14.229.59-2.685 3.234-4.677 5.828-4.059 3.916.9 6.702 4.284 8.992 7.539 4.646 5.85 5.792 13.533 7.111 20.791.385 3.101 2.919 6.023 6.074 5.262 5.954-1.274 10.887-5.553 16.713-7.26 3.946-1.08 8.059-.469 11.982.41 3.886.945 8.014 1.636 11.4 4.004 1.947 1.175 2.05 4.779-.195 5.625-3.852 1.128-8.082 1.023-11.67 3.072-1.718 1.132-3.069 3.096-3.195 5.281-.335 3 2.985 4.979 2.139 8.072-.99 4.062 1.281 8.883 5.299 9.752-.765-2.812-1.754-6.45.35-8.859 3.075.074 6.281.019 9.268-.967 4.3-1.415 6.366-6.101 7.133-10.459.404-1.732.618-3.93 2.252-4.877 2.28-1.028 4.949.922 5.473 3.354.9 3.89.281 8.175 2.135 11.809 1.908 4.063 6.473 6.352 10.654 5.596 1.482.044 1.663 2.001 1.609 3.205-.13 1.628-2.017 2.278-2.445 3.578 2.877.51 6.281-.504 7.65-3.459 1.185-1.943-.389-4.457 1.043-6.322 2.252-3.382 2.943-8.504.143-11.773-3.014-4.004-8.337-4.748-11.479-8.562-1.319-1.363-.456-4.119 1.508-3.939 3.362.256 5.564 3.382 8.443 4.871 3.5 2.215 8.493 2.169 11.387-1.135 2.278 1.205 3.944 3.478 3.881 6.27 1.254-.563 2.569-1.494 2.732-3.057.771-3.28-2.306-5.597-2.445-8.727-.085-2.474-.434-5.198-2.238-6.971-2.984-3.043-7.73-3.895-11.564-2.352-1.921.742-4.064.808-6.037.279-1.514-.389-2.149-2.836-.867-3.869 2.212-1.79 5.487-.765 7.563-2.814 1.55-1.582 1.023-4.122 1.947-6 1.562-1.425 3.861-.818 5.715-.521-.226-2.817-2.599-5.315-5.264-5.578-1.545-.314-3.199.486-4.666-.277-3.674-2.261-8.879-1.489-11.654 1.992-4.116 4.389-4.899 11.143-9.193 15.369-4.102 3.52-9.779 2.869-14.684 2.414-4.267-.451-8.125-2.639-12.289-3.561 2.747-4.631 7.739-8.134 8.23-13.975-.6-2.105-3.098-3.365-5.045-2.424-10.895 2.268-23.678.956-31.896-7.746-5.278-4.709-9.022-10.939-12.664-17.064-2.14-3.603-2.79-9.187.863-11.965 2.08-1.616 4.327.647 5.033 2.703 1.456 4.02 1.865 8.412 3.58 12.346 1.968 4.18 6.331 8.503 11.064 6.959 2.336-.795 3.063-3.974 1.922-6.109-2.434-4.995-7.683-7.702-9.805-12.939-1.098-2.186-1.398-5.53.834-7.029 2.147-.993 4.304.816 5.559 2.543 4.027 5.67 4.296 13.362 8.436 18.969 3.828 4.628 9.699 7.438 15.535 6.871 2.838-.334 5.905-1.956 6.811-5.031.79-2.64-.812-5.203-2.516-6.98-5.871-5.754-13.475-9.6-18.045-16.795-1.306-2.178-1.436-5.814 1.023-7.123 2.545-.892 4.883 1.162 6.621 2.893 4.957 5.387 8.932 11.714 14.109 16.891 7.064 7.351 14.964 15.084 25.143 16.707 7.388 1.508 15.443.039 21.449-4.936 3.172-2.326 5.774-6.545 4.621-10.752-1.424-3.99-5.786-5.189-9.4-5.477-7.644-.45-15.389.751-22.967-.898-7.733-1.475-14.382-6.345-20.33-11.545-3.616-3.55-7.636-7.044-9.859-11.797-1.113-2.51 2.082-3.876 3.738-2.451 8.03 5.016 13.641 13.888 22.748 17.109 7.594 2.701 15.918 5.039 23.811 2.268 5.46-1.648 11.609-5.257 12.506-11.799.737-3.352-1.753-6.673-4.967-6.795-8.383-1.026-16.347 3.46-24.74 2.787-3.459-.405-7.072-.68-10.184-2.5-5.226-2.813-10.755-5.297-15.187-9.459-1.344-1.076-1.939-3.717.008-4.469 4.074-1.376 8.303.785 11.662 3.146 6.952 4.426 14.88 7.54 23.064 7.584 6.325-.256 12.654-2.626 17.539-6.932 2.266-1.945 4.241-5.147 3.139-8.33-1.06-3.01-4.485-3.848-7.201-3.744-3.797.336-7.371 1.949-11.141 2.477-11.543 1.164-24.702 3.087-34.676-4.711-1.506-.848-3.633-3.12-1.754-4.744 2.727-1.499 5.82.225 8.488 1.117 6.18 2.012 12.429 3.991 18.879 4.736 8.534.776 17.674-1.197 24.549-6.83 2.473-2.244 3.946-6.253 2.422-9.504-1.647-2.51-4.779-4.009-7.639-3.207-7.518 1.52-14.047 6.443-21.715 7.365-6.834 1.113-14.059 1.137-20.543-1.693-1.1-.577-2.381-1.648-2.096-3.119.374-1.717 2.164-2.572 3.707-2.457 8.297.491 16.706 2.027 24.92-.094 7.768-.793 15.688-2.921 21.842-8.242 3.018-2.884 3.219-8.735-.207-11.346-2.228-1.833-5.261-1.489-7.754-.529-8.296 3.383-16.317 7.549-24.859 10.225-4.711 1.992-9.736 3.2-14.801 3.49-1.402.106-3.496-.406-3.336-2.324.224-2.038 2.223-3.18 3.883-3.773 8.095-2.582 16.459-4.002 24.654-6.162 6.477-2.003 12.823-4.569 18.727-8.055 3.462-1.81 7.194-4.922 7.037-9.447.352-5.429-4.938-10.429-9.955-8.414-6.369 3.444-11.788 8.518-17.877 12.453-7.401 4.914-15.436 8.946-24.021 10.834-1.228.21-3.143-.061-3.25-1.723-.243-2.093 1.524-3.535 3.102-4.344 5.362-3.015 11.307-4.595 16.787-7.334 12.293-5.901 25.095-12.479 33.713-23.908 2.966-3.453 3.807-9.158 1.158-13.066-3.496-4.663-10.726-6.591-15.326-2.65-5.932 4.475-10.104 10.956-15.576 15.975-5.413 4.97-10.919 9.966-17.377 13.371-3.737 2.038-7.446 4.425-11.668 5.105-2.779.358-4.83-3.317-7.598-2.035-6.921 2.911-13.778 7.34-17.387 14.506-2.751 4.7-2.326 10.514-4.256 15.537-1.188 3.476-2.519 7.389-5.801 9.227-1.734-1.552-3.055-3.565-4.797-5.121-2.801-2.437-5.923-4.453-8.621-7.025-4.07-4.572-6.598-11.14-5.35-17.447 1.275-7.584 7.927-12.708 14.693-14.217 8.872-2.465 18.11-1.79 27.158-2.684 2.612-.33 5.468-1.049 7.182-3.346.652-.998 1.201-2.499 2.574-2.443 3.74.49 7.638.055 11.137-1.473 3.544-1.506 6.064-5.838 5.334-9.863-.397-2.289-3.109-2.667-4.779-1.756-3.444 1.244-4.444 6.602-8.23 6.76.785-4.222-1.451-8.288-5.094-10.033-3.79-2.252-8.323-1.49-12.371-2.795-1.365-6.41-8.361-8.463-13.795-8.141-9.759-.078-19.685.662-29.205-2.139-.17 2.372-.358 4.936.75 7.105.954 1.925 2.804 3.013 4.381 4.283-8.209 2.123-15.126 7.406-22.727 11.063 2.244 2.943 4.489 6.387 8.098 7.521.867.25 2.3 1.129 1.445 2.219-3.148 3.188-6.814 5.942-11.051 7.205-.991 2.64 3.712 3.292 3.121 5.994-2.034 3.314-4.781 6.876-6.893 10.074-2.112-3.198-4.643-6.76-6.677-10.074-.591-2.702 4.112-3.354 3.121-5.994-4.237-1.263-7.903-4.017-11.051-7.205-.855-1.09.578-1.969 1.445-2.219 3.609-1.134 5.854-4.578 8.098-7.521-7.601-3.656-14.518-8.94-22.727-11.062 1.577-1.27 3.427-2.358 4.381-4.283 1.108-2.169.92-4.733.75-7.105zm-34.633 10.758a2.17 2.17 0 0 1 .676.111c2.379.715 5.001 1.675 6.744 3.568-3.221 1.013-6.912 1.15-9.992-.387-1.177-1.746.907-3.318 2.572-3.293zm114.801 0c1.665-.025 3.749 1.547 2.572 3.293-3.08 1.537-6.771 1.4-9.992.387 1.743-1.893 4.365-2.853 6.744-3.568.21-.073.438-.107.676-.111zm-134.078 9.445a2 2 0 0 1 .605.076c1.903.561 3.782 1.199 5.633 1.914-2.679.567-5.411.783-8.127 1.051-.668-1.505.498-3.003 1.889-3.041zm153.355 0c1.391.038 2.556 1.536 1.889 3.041-2.716-.268-5.448-.484-8.127-1.051 1.851-.715 3.73-1.353 5.633-1.914a2 2 0 0 1 .605-.076zm-144.941 8.492c-.568 2.46-5.037 3.229-5.967.596h.002c2.001-.087 3.985-.574 5.965-.596zm136.527 0c1.98.022 3.964.509 5.965.596h.002c-.93 2.633-5.399 1.864-5.967-.596z" fill-rule="evenodd"/></svg>