<svg xmlns="http://www.w3.org/2000/svg" viewBox="0 0 550 433"><defs><style>.a,.c{fill:#9ea1a2;}.b,.j,.t{fill:#fff;}.c,.d{stroke:#c10230;}.c,.h,.i,.j,.k,.m,.s,.t,.u,.x,.y,.z{stroke-linecap:round;stroke-linejoin:round;}.c,.d,.f,.h,.i,.j,.l,.m,.n,.o,.s,.t,.u,.w,.x,.y,.z{stroke-width:0.5px;}.d,.h,.k,.m,.s,.w{fill:none;}.d,.f,.l,.n,.o,.w{stroke-miterlimit:10;}.e{fill:#c10230;}.f{fill:#7f8d84;}.f,.l,.m,.n,.o,.w,.x,.y,.z{stroke:#602e19;}.g,.i{fill:#001689;}.h,.i,.j,.k{stroke:#80807f;}.k{stroke-width:0.25px;}.l,.p{fill:#7a3f28;}.n,.q{fill:#943221;}.o,.r,.z{fill:#ae582e;}.s,.t,.u{stroke:#221f1f;}.u,.v,.x{fill:#ffcd00;}.y{fill:#e3be2a;}</style></defs><rect class="a" width="550" height="433"/><polygon class="b" points="282.09 86.5 273.76 80.45 265.43 86.5 268.61 76.71 260.29 70.66 270.58 70.66 273.76 60.87 276.94 70.66 287.24 70.66 278.91 76.71 282.09 86.5 282.09 86.5"/><polygon class="b" points="216.86 71.68 217.4 81.96 207.79 85.65 217.73 88.31 218.27 98.59 223.88 89.96 233.82 92.63 227.34 84.63 232.95 75.99 223.34 79.68 216.86 71.68"/><polygon class="b" points="176.06 108.32 169.04 115.85 159.71 111.5 164.7 120.5 157.68 128.03 167.78 126.07 172.77 135.07 174.03 124.86 184.13 122.89 174.8 118.54 176.06 108.32"/><polygon class="b" points="143.65 150.09 139.8 159.63 129.53 158.92 137.41 165.53 133.56 175.08 142.29 169.62 150.17 176.24 147.68 166.25 156.41 160.8 146.15 160.08 143.65 150.09"/><polygon class="b" points="128.13 201.22 127.94 211.51 118.1 214.52 127.83 217.87 127.66 228.17 133.85 219.95 143.58 223.3 137.68 214.87 143.87 206.64 134.03 209.65 128.13 201.22"/><polygon class="b" points="148.74 253.82 140.63 260.16 132.09 254.4 135.62 264.07 127.5 270.41 137.79 270.05 141.31 279.72 144.15 269.83 154.44 269.47 145.9 263.71 148.74 253.82"/><polygon class="b" points="170.63 296.5 165.33 305.32 155.3 303.01 162.06 310.78 156.75 319.6 166.23 315.58 172.98 323.35 172.09 313.09 181.56 309.07 171.53 306.75 170.63 296.5"/><polygon class="b" points="332.12 71.68 331.58 81.96 341.2 85.65 331.25 88.31 330.71 98.59 325.11 89.96 315.16 92.63 321.64 84.63 316.04 75.99 325.64 79.68 332.12 71.68"/><polygon class="b" points="372.93 108.32 379.95 115.85 389.28 111.5 384.29 120.5 391.31 128.03 381.2 126.07 376.21 135.07 374.96 124.86 364.86 122.89 374.18 118.54 372.93 108.32"/><polygon class="b" points="405.33 150.09 409.19 159.63 419.46 158.92 411.57 165.53 415.43 175.08 406.7 169.62 398.81 176.24 401.3 166.25 392.57 160.8 402.84 160.08 405.33 150.09"/><polygon class="b" points="420.86 201.22 421.04 211.51 430.88 214.52 421.15 217.87 421.33 228.17 415.14 219.95 405.4 223.3 411.31 214.87 405.11 206.64 414.96 209.65 420.86 201.22"/><polygon class="b" points="400.25 253.82 408.36 260.16 416.89 254.4 413.37 264.07 421.48 270.41 411.19 270.05 407.67 279.72 404.84 269.83 394.55 269.47 403.08 263.71 400.25 253.82"/><polygon class="b" points="378.35 296.5 383.65 305.32 393.68 303.01 386.93 310.78 392.23 319.6 382.76 315.58 376 323.35 376.9 313.09 367.43 309.07 377.45 306.75 378.35 296.5"/><path class="b" d="M393.55,467.92c-1.42-2.49-1.47-4.95-2.53-9s-2.48-7-7.27-7-8.85,4-11.34,11.65l.17.77c.82,2.89,5.54,22.65-19.5,35.72-.16.08-.31.17-.46.26-11.53,6.33-36.9,12.94-46.61,25.24-9.71-12.3-35.08-18.91-46.61-25.24-.15-.09-.3-.18-.46-.26-21.62-11.29-21-28.22-19.88-34.49-.07,0,0-.26,0-.29l0-.43.11-1.74c-2.49-7.63-6.53-11.19-11.33-11.19s-6.15,3.21-7.22,7.3-1.3,6.19-2.72,8.68-5.27,9.82-5.09,11.77a8.2,8.2,0,0,0,3.18,5.2,37.37,37.37,0,0,0,4,1.73c-1.24,7.46.75,17,9.28,24.44s21.65,14.38,37.81,21,24,8.34,38.7,19.7c14.73-11.36,22.55-13.13,38.7-19.7s29.29-13.49,37.82-21a26.63,26.63,0,0,0,8.91-24.74s3.11-1.49,4.35-2.2a7.39,7.39,0,0,0,2.92-5c.17-1.95-3.58-8.64-4.82-11.24" transform="translate(-31 -179.5)"/><path class="c" d="M221,485.3s2.88-5.44,6-10.16c1.72-2.57,5.08-7.26,5.08-7.26" transform="translate(-31 -179.5)"/><path class="c" d="M229.37,459.38s-.76,1.33-3.33,6.33" transform="translate(-31 -179.5)"/><path class="c" d="M390.57,485.28s-2.82-5.42-6-10.14c-1.72-2.57-5-7.29-5-7.29" transform="translate(-31 -179.5)"/><path class="c" d="M382,458.54s1.08,2.28,3.66,7.29" transform="translate(-31 -179.5)"/><path class="d" d="M391.21,460.08c1.06,4.08,1,5.45,2.44,7.94s4.41,8.26,4.77,10.38" transform="translate(-31 -179.5)"/><path class="d" d="M220.49,459.81c-1.06,4.08-1,5.45-2.44,7.93s-4.41,8.26-4.77,10.38" transform="translate(-31 -179.5)"/><path class="e" d="M306,527.4c-9.71-12.3-35.61-19.63-47.13-26l-.46-.26c-19-10.14-22.19-22.37-21-34-.07,0-.32-13.65-9.56-13.65-4.79,0-6.39,3-7.45,7.1V458.5c1.06-4.09,2.66-7.1,7.45-7.1,10,0,11.88,13.81,11.88,13.81s2.3.24,2.37.27c-1.1,6.27-2.43,22.93,16.55,33.07l.71.38c11.53,6.33,36.92,12.93,46.63,25.22" transform="translate(-31 -179.5)"/><path class="e" d="M306,527.4c9.66-12.3,35.44-19.63,46.91-26,.15-.09.3-.18.46-.26,18.89-10.14,22.08-22.37,20.89-34,.07,0,.32-13.65,9.51-13.65,4.77,0,6.36,3,7.42,7.1V458.5c-1.06-4.09-2.65-7.1-7.42-7.1-10,0-11.68,13-11.68,13s-2.43,1.09-2.5,1.12c1.1,6.27,2.42,22.93-16.48,33.07l-.7.38C341,505.26,315.67,511.86,306,524.15" transform="translate(-31 -179.5)"/><path class="e" d="M305.81,552.54l-.66-.51c-11.91-9.18-19.22-12-30.29-16.34-2.55-1-5.19-2-8.16-3.22-17.55-7.14-30-14.05-38.12-21.14-10.12-8.85-9.57-19.05-8.87-24.43-1-.42-2.88-.87-4.09-1.95a8.13,8.13,0,0,1-3-5.89l1.06-3a9.22,9.22,0,0,0,2.08,5.82c1.82,2.36,5.57,3.33,5.57,3.33l-.3,2.3c-.59,8.48,1.68,15.76,9,22.16,7.91,6.92,20.18,13.71,37.5,20.76,3,1.2,5.59,2.23,8.14,3.22,11,4.29,18.39,7.15,30.16,16.12" transform="translate(-31 -179.5)"/><path class="e" d="M305.81,552.54l.66-.51c11.91-9.18,19.22-12,30.28-16.34,2.56-1,5.19-2,8.17-3.22,17.55-7.14,30-14.05,38.11-21.14,10.12-8.85,9.57-19.05,8.88-24.43.94-.42,2.87-.87,4.08-1.95a8.1,8.1,0,0,0,3-5.89l-1.06-3a9.16,9.16,0,0,1-2.08,5.82c-1.81,2.36-5.57,3.33-5.57,3.33l.3,2.3c.59,8.48-1.68,15.76-9,22.16-7.92,6.92-20.18,13.71-37.51,20.76-3,1.2-5.59,2.23-8.13,3.22-11,4.29-18.4,7.15-30.16,16.12" transform="translate(-31 -179.5)"/><path class="e" d="M220.15,459.58s-1.25,4.07,3.69,7.66,8.4.94,8.4.94l1.42-2.7s-4.6,2.3-8.67-.34c-2.39-1.56-3.92-5.35-3.9-8.81l-.67,2.17Z" transform="translate(-31 -179.5)"/><path class="e" d="M233.66,465.48a6.67,6.67,0,0,0-4.06-7.36l-.72,1.63s5.65,3.1,3.73,7.73" transform="translate(-31 -179.5)"/><path class="e" d="M391.54,459.57s1.25,4.07-3.69,7.66-8.39.95-8.39.95L378,465.47s4.6,2.3,8.66-.34c2.39-1.55,3.85-5.34,3.83-8.81Z" transform="translate(-31 -179.5)"/><path class="e" d="M378,465.47a6.64,6.64,0,0,1,4.06-7.35l.72,1.62s-5.66,3.11-3.73,7.74" transform="translate(-31 -179.5)"/><path class="e" d="M242.24,497.52l1.07-.59.4.5-2.7,4.42-.5-.62a8.56,8.56,0,0,0,1-3.82,4.45,4.45,0,0,0-.85-2.72,1.94,1.94,0,0,0-2.25-.73c-.9.28-1.9,1.24-3,2.89a10.8,10.8,0,0,0-2,4.71,4,4,0,0,0,.86,2.92,2.62,2.62,0,0,0,2.36,1.15,3.7,3.7,0,0,0,2.11-1.27l.48.62a3.83,3.83,0,0,1-2.93,1.57,3.67,3.67,0,0,1-2.81-1.61,8.15,8.15,0,0,1-1.69-5,9.06,9.06,0,0,1,1.54-5.33c1.18-1.78,2.55-2.67,4.09-2.67a4.28,4.28,0,0,1,3.42,1.83,6,6,0,0,1,.9,1.58,9.28,9.28,0,0,1,.49,2.15" transform="translate(-31 -179.5)"/><path class="e" d="M245.42,498.92l5.18,3.72-.42.69-.94-.67a.72.72,0,0,0-.51-.19.53.53,0,0,0-.37.28l-5.14,8.43a.64.64,0,0,0-.11.53,1.05,1.05,0,0,0,.43.54l.83.6-.42.69-5.17-3.73.42-.69.79.57a1.15,1.15,0,0,0,.67.28.59.59,0,0,0,.43-.32l5.09-8.33a.78.78,0,0,0,.12-.57.87.87,0,0,0-.39-.49l-.91-.66.42-.68" transform="translate(-31 -179.5)"/><path class="e" d="M251.74,503.52l5.41,3-.4.7-.6-.32a1.84,1.84,0,0,0-.87-.32.41.41,0,0,0-.38.2,2.17,2.17,0,0,0-.18.69l-1.11,8.21,5.6-4.45a3.63,3.63,0,0,0,.84-.95,1.05,1.05,0,0,0,.13-.86,1.37,1.37,0,0,0-.7-.69l-.5-.28.4-.7,4.27,2.35-.4.7-.32-.18a1.26,1.26,0,0,0-.9-.12,3.32,3.32,0,0,0-1.21.67l-9.17,7.21-.88-.48,1.62-12a1.54,1.54,0,0,0-.07-.92,2.08,2.08,0,0,0-.75-.63l-.24-.12.41-.7" transform="translate(-31 -179.5)"/><path class="e" d="M264.74,510.62l5.75,2.5-.34.73-1-.46a.87.87,0,0,0-.55-.07.6.6,0,0,0-.34.34L264,522.59a.58.58,0,0,0,0,.52.94.94,0,0,0,.51.43l.93.4-.35.73-5.76-2.5.35-.73.88.39a1.15,1.15,0,0,0,.72.12.65.65,0,0,0,.4-.38l4.15-8.84a.67.67,0,0,0,.05-.56.84.84,0,0,0-.46-.39l-1-.43.35-.73" transform="translate(-31 -179.5)"/><path class="e" d="M271.59,514.4l.27-.76,6,2.31-.27.76-1-.39a.91.91,0,0,0-.67-.06.79.79,0,0,0-.37.49l-3.2,8.92a1,1,0,0,0-.08.76q.11.21.72.45l1.68.65a2.46,2.46,0,0,0,2.08-.24,6.68,6.68,0,0,0,2.29-2.45l.69.26-1.92,4.52-10.22-4,.27-.76,1,.4a.7.7,0,0,0,.58,0,.71.71,0,0,0,.35-.43l3.3-9.18a.65.65,0,0,0,0-.55,1,1,0,0,0-.56-.39Z" transform="translate(-31 -179.5)"/><path class="e" d="M291.49,525.11,289,529.06l3.89,1.88Zm1.71-2.6,3.23,13.71a2.61,2.61,0,0,0,.36.86,1.52,1.52,0,0,0,.58.47l.45.22-.09.8L292,535.8l.1-.8.53.26a2,2,0,0,0,.89.27.29.29,0,0,0,.29-.27,1.88,1.88,0,0,0-.05-.49l-.67-2.83-4.56-2.2-.55.87a2.08,2.08,0,0,0-.39.87,1.56,1.56,0,0,0,.29,1.1,2.4,2.4,0,0,0,1,.88l.39.19-.1.8-4.63-2.24.1-.8.26.12a1,1,0,0,0,.82.09,1.73,1.73,0,0,0,.87-.7l5.63-8.86.93.45" transform="translate(-31 -179.5)"/><path class="e" d="M298.55,526.54l5.79,4v.81l-1-.72c-.22-.15-.38-.22-.49-.19s-.15.15-.14.34l.07,9.87a1.08,1.08,0,0,0,.16.6,2,2,0,0,0,.6.61l.93.64v.81l-5.79-4v-.81l.88.61c.31.21.52.3.64.28s.19-.16.19-.39l-.07-9.76a1.32,1.32,0,0,0-.18-.65,1.73,1.73,0,0,0-.54-.54l-1-.69v-.81" transform="translate(-31 -179.5)"/><path class="e" d="M309.77,535.28l.9-.56a5.54,5.54,0,0,0,1.88-1.91,4.41,4.41,0,0,0,.52-2.23c0-.82-.17-1.32-.51-1.49s-.93,0-1.77.52a2.77,2.77,0,0,0-.85.71,1.75,1.75,0,0,0-.17.9ZM306,531.76l5.55-3.44a5.86,5.86,0,0,1,2.2-.94,1.37,1.37,0,0,1,1.27.36,2,2,0,0,1,.42,1.36,5.26,5.26,0,0,1-1.05,3,10.42,10.42,0,0,1-2.46,2.39,2.58,2.58,0,0,1,1.29-.27,1.28,1.28,0,0,1,.79.58,5.64,5.64,0,0,1,.74,1.8,2.44,2.44,0,0,0,.31.87.23.23,0,0,0,.31,0c.31-.2.5-.83.56-1.9l.64-.39a6.68,6.68,0,0,1-.59,2.71,4,4,0,0,1-1.48,1.62,1.69,1.69,0,0,1-1.1.34.93.93,0,0,1-.63-.61,10.88,10.88,0,0,1-.36-1.53,7.75,7.75,0,0,0-.48-1.89.8.8,0,0,0-.54-.49,1.23,1.23,0,0,0-.84.25l-.78.48v4.76q0,.32.15.39a.57.57,0,0,0,.5-.1l1-.59v.81L306,544.65v-.81l.83-.52a1.31,1.31,0,0,0,.66-1.18v-9.72c0-.27-.05-.43-.15-.5s-.25,0-.43.08l-.91.57v-.81" transform="translate(-31 -179.5)"/><path class="e" d="M326.59,526.09l1.36-.63a3.36,3.36,0,0,0,1.22-1,3.2,3.2,0,0,0,.65-1.23,4.82,4.82,0,0,0,0-1.77c-.16-1-.52-1.68-1.07-1.88a2.73,2.73,0,0,0-1.88.37,2.8,2.8,0,0,0-.91.58.74.74,0,0,0-.12.59Zm-5-4.51,6.44-3a3.16,3.16,0,0,1,2.8-.19,2.55,2.55,0,0,1,1.39,2.06,4.2,4.2,0,0,1-.26,2.26,5.15,5.15,0,0,1-1.35,2,7.3,7.3,0,0,1-1.86,1.28l-2,.95.67,4.23a.61.61,0,0,0,.26.47.49.49,0,0,0,.47,0l1.26-.58.13.81-5.86,2.72-.12-.81,1-.46a1,1,0,0,0,.46-.42,1,1,0,0,0,.08-.62l-1.56-9.88a.56.56,0,0,0-.26-.44.43.43,0,0,0-.44,0l-1.06.49-.13-.81" transform="translate(-31 -179.5)"/><path class="e" d="M335.81,518.89l-.54,5.38,3.67-1.46Zm.37-3.57,7.39,9.21a1.34,1.34,0,0,0,.59.46,1,1,0,0,0,.63-.06l.42-.17.21.76L340,527.67l-.22-.77.51-.2a1.87,1.87,0,0,0,.78-.47.46.46,0,0,0,.12-.46,1,1,0,0,0-.21-.38l-1.53-1.91-4.31,1.72-.12,1.19a3.13,3.13,0,0,0,0,1.06,1,1,0,0,0,.61.72,1.53,1.53,0,0,0,1.12-.07l.37-.15.21.77L333,530.45l-.22-.76.25-.1a1.37,1.37,0,0,0,.67-.57,3.31,3.31,0,0,0,.41-1.3l1.21-12.06.85-.34" transform="translate(-31 -179.5)"/><path class="e" d="M339.91,513.9l9.68-4.32,2.33,4.26-.68.31a9.75,9.75,0,0,0-1.67-1.92,3.29,3.29,0,0,0-1.41-.73,2.15,2.15,0,0,0-1.23.15.76.76,0,0,0-.43.36.58.58,0,0,0,.05.49l4.25,8.92a.72.72,0,0,0,.36.35.58.58,0,0,0,.45,0l1.26-.57.35.73-5.93,2.65-.34-.73,1.19-.54a.62.62,0,0,0,.36-.35.66.66,0,0,0-.05-.49l-4.24-8.87a.66.66,0,0,0-.38-.39.82.82,0,0,0-.57.08c-1.27.57-1.56,2.16-.84,4.79l-.66.3-1.85-4.48" transform="translate(-31 -179.5)"/><path class="e" d="M357.08,512.16l.89-.48a3,3,0,0,0,1.54-1.66,2.61,2.61,0,0,0-.32-2,2.33,2.33,0,0,0-1.29-1.33,2.73,2.73,0,0,0-2,.43c-.45.25-.7.45-.76.62a1.17,1.17,0,0,0,.18.8ZM350.8,509l5.5-3a5.92,5.92,0,0,1,2.37-.8,2.91,2.91,0,0,1,1.75.34,2.76,2.76,0,0,1,1.12,1.22,2.8,2.8,0,0,1,0,2.61,5.91,5.91,0,0,1-2.06,2.09,3.4,3.4,0,0,1,1.51-.22,3,3,0,0,1,1.26.52,9.39,9.39,0,0,1,1.7,1.62,3.68,3.68,0,0,0,.78.77.41.41,0,0,0,.4,0c.31-.17.27-.73-.11-1.68l.62-.34a4,4,0,0,1,.43,2.4,2.14,2.14,0,0,1-1.16,1.42,2,2,0,0,1-1.23.29,2.05,2.05,0,0,1-1.06-.55,11.72,11.72,0,0,1-1.12-1.37,12.07,12.07,0,0,0-1.42-1.68,1.83,1.83,0,0,0-.91-.44,1.58,1.58,0,0,0-.94.2l-.78.42,2.07,4.22a.6.6,0,0,0,.36.34.81.81,0,0,0,.59-.07l1-.52.35.73-5.33,2.87-.36-.72.83-.45a.72.72,0,0,0,.39-.44.84.84,0,0,0-.08-.59L353,509.59a.89.89,0,0,0-.41-.44.64.64,0,0,0-.51.07l-.89.48-.36-.73" transform="translate(-31 -179.5)"/><path class="e" d="M365.77,500.5a2.61,2.61,0,0,0-.91,1.48,4.36,4.36,0,0,0,.21,2.19A16.58,16.58,0,0,0,369,510a3.21,3.21,0,0,0,1.83.78,2.29,2.29,0,0,0,1.59-.56,2.77,2.77,0,0,0,.95-2.49,10,10,0,0,0-2-4.36,12.3,12.3,0,0,0-2.24-2.65,3.08,3.08,0,0,0-1.79-.76A2.33,2.33,0,0,0,365.77,500.5Zm-.5-.67a5,5,0,0,1,2.78-1.14,5.21,5.21,0,0,1,3,.64,7.27,7.27,0,0,1,2.52,2.35,7.75,7.75,0,0,1,1.43,5.05,5.77,5.77,0,0,1-2.12,4.22,4.7,4.7,0,0,1-2.77,1.14,5.41,5.41,0,0,1-2.93-.66,7.24,7.24,0,0,1-2.54-2.39,7.76,7.76,0,0,1-1.45-5,5.72,5.72,0,0,1,2.09-4.17" transform="translate(-31 -179.5)"/><path class="e" d="M370.51,496.43l-.48-.64,3.22-5.31.48.65-.54.9a1.18,1.18,0,0,0-.22.68,1.2,1.2,0,0,0,.26.63l5.71,7.71q.35.46.54.45c.12,0,.29-.2.51-.56l.9-1.49a3.74,3.74,0,0,0,.36-2.34,10.88,10.88,0,0,0-1.21-3.63l.38-.62,2.8,4.21-5.52,9.07-.48-.65.56-.91a1,1,0,0,0-.07-1.2l-5.87-7.92c-.14-.2-.27-.28-.4-.26s-.27.15-.43.41l-.5.82" transform="translate(-31 -179.5)"/><path class="e" d="M242.24,497.52l1.07-.59.4.5-2.7,4.42-.5-.62a8.56,8.56,0,0,0,1-3.82,4.45,4.45,0,0,0-.85-2.72,1.94,1.94,0,0,0-2.25-.73c-.9.28-1.9,1.24-3,2.89a10.8,10.8,0,0,0-2,4.71,4,4,0,0,0,.86,2.92,2.62,2.62,0,0,0,2.36,1.15,3.7,3.7,0,0,0,2.11-1.27l.48.62a3.83,3.83,0,0,1-2.93,1.57,3.67,3.67,0,0,1-2.81-1.61,8.15,8.15,0,0,1-1.69-5,9.06,9.06,0,0,1,1.54-5.33c1.18-1.78,2.55-2.67,4.09-2.67a4.28,4.28,0,0,1,3.42,1.83,6,6,0,0,1,.9,1.58,9.28,9.28,0,0,1,.49,2.15" transform="translate(-31 -179.5)"/><path class="e" d="M245.42,498.92l5.18,3.72-.42.69-.94-.67a.72.72,0,0,0-.51-.19.53.53,0,0,0-.37.28l-5.14,8.43a.64.64,0,0,0-.11.53,1.05,1.05,0,0,0,.43.54l.83.6-.42.69-5.17-3.73.42-.69.79.57a1.15,1.15,0,0,0,.67.28.59.59,0,0,0,.43-.32l5.09-8.33a.78.78,0,0,0,.12-.57.87.87,0,0,0-.39-.49l-.91-.66.42-.68" transform="translate(-31 -179.5)"/><path class="e" d="M251.74,503.52l5.41,3-.4.7-.6-.32a1.84,1.84,0,0,0-.87-.32.41.41,0,0,0-.38.2,2.17,2.17,0,0,0-.18.69l-1.11,8.21,5.6-4.45a3.63,3.63,0,0,0,.84-.95,1.05,1.05,0,0,0,.13-.86,1.37,1.37,0,0,0-.7-.69l-.5-.28.4-.7,4.27,2.35-.4.7-.32-.18a1.26,1.26,0,0,0-.9-.12,3.32,3.32,0,0,0-1.21.67l-9.17,7.21-.88-.48,1.62-12a1.54,1.54,0,0,0-.07-.92,2.08,2.08,0,0,0-.75-.63l-.24-.12.41-.7" transform="translate(-31 -179.5)"/><path class="e" d="M264.74,510.62l5.75,2.5-.34.73-1-.46a.87.87,0,0,0-.55-.07.6.6,0,0,0-.34.34L264,522.59a.58.58,0,0,0,0,.52.94.94,0,0,0,.51.43l.93.4-.35.73-5.76-2.5.35-.73.88.39a1.15,1.15,0,0,0,.72.12.65.65,0,0,0,.4-.38l4.15-8.84a.67.67,0,0,0,.05-.56.84.84,0,0,0-.46-.39l-1-.43.35-.73" transform="translate(-31 -179.5)"/><path class="e" d="M271.59,514.4l.27-.76,6,2.31-.27.76-1-.39a.91.91,0,0,0-.67-.06.79.79,0,0,0-.37.49l-3.2,8.92a1,1,0,0,0-.08.76q.11.21.72.45l1.68.65a2.46,2.46,0,0,0,2.08-.24,6.68,6.68,0,0,0,2.29-2.45l.69.26-1.92,4.52-10.22-4,.27-.76,1,.4a.7.7,0,0,0,.58,0,.71.71,0,0,0,.35-.43l3.3-9.18a.65.65,0,0,0,0-.55,1,1,0,0,0-.56-.39l-.92-.36" transform="translate(-31 -179.5)"/><path class="e" d="M291.49,525.11,289,529.06l3.89,1.88Zm1.71-2.6,3.23,13.71a2.61,2.61,0,0,0,.36.86,1.52,1.52,0,0,0,.58.47l.45.22-.09.8L292,535.8l.1-.8.53.26a2,2,0,0,0,.89.27.29.29,0,0,0,.29-.27,1.88,1.88,0,0,0-.05-.49l-.67-2.83-4.56-2.2-.55.87a2.08,2.08,0,0,0-.39.87,1.56,1.56,0,0,0,.29,1.1,2.4,2.4,0,0,0,1,.88l.39.19-.1.8-4.63-2.24.1-.8.26.12a1,1,0,0,0,.82.09,1.73,1.73,0,0,0,.87-.7l5.63-8.86.93.45" transform="translate(-31 -179.5)"/><path class="e" d="M298.55,526.54l5.79,4v.81l-1-.72c-.22-.15-.38-.22-.49-.19s-.15.15-.14.34l.07,9.87a1.08,1.08,0,0,0,.16.6,2,2,0,0,0,.6.61l.93.64v.81l-5.79-4v-.81l.88.61c.31.21.52.3.64.28s.19-.16.19-.39l-.07-9.76a1.32,1.32,0,0,0-.18-.65,1.73,1.73,0,0,0-.54-.54l-1-.69Z" transform="translate(-31 -179.5)"/><path class="e" d="M309.77,535.28l.9-.56a5.54,5.54,0,0,0,1.88-1.91,4.41,4.41,0,0,0,.52-2.23c0-.82-.17-1.32-.51-1.49s-.93,0-1.77.52a2.77,2.77,0,0,0-.85.71,1.75,1.75,0,0,0-.17.9ZM306,531.76l5.55-3.44a5.86,5.86,0,0,1,2.2-.94,1.37,1.37,0,0,1,1.27.36,2,2,0,0,1,.42,1.36,5.26,5.26,0,0,1-1.05,3,10.42,10.42,0,0,1-2.46,2.39,2.58,2.58,0,0,1,1.29-.27,1.28,1.28,0,0,1,.79.58,5.64,5.64,0,0,1,.74,1.8,2.44,2.44,0,0,0,.31.87.23.23,0,0,0,.31,0c.31-.2.5-.83.56-1.9l.64-.39a6.68,6.68,0,0,1-.59,2.71,4,4,0,0,1-1.48,1.62,1.69,1.69,0,0,1-1.1.34.93.93,0,0,1-.63-.61,10.88,10.88,0,0,1-.36-1.53,7.75,7.75,0,0,0-.48-1.89.8.8,0,0,0-.54-.49,1.23,1.23,0,0,0-.84.25l-.78.48v4.76q0,.32.15.39a.57.57,0,0,0,.5-.1l1-.59v.81L306,544.65v-.81l.83-.52a1.31,1.31,0,0,0,.66-1.18v-9.72c0-.27-.05-.43-.15-.5s-.25,0-.43.08l-.91.57v-.81" transform="translate(-31 -179.5)"/><path class="e" d="M326.59,526.09l1.36-.63a3.36,3.36,0,0,0,1.22-1,3.2,3.2,0,0,0,.65-1.23,4.82,4.82,0,0,0,0-1.77c-.16-1-.52-1.68-1.07-1.88a2.73,2.73,0,0,0-1.88.37,2.8,2.8,0,0,0-.91.58.74.74,0,0,0-.12.59Zm-5-4.51,6.44-3a3.16,3.16,0,0,1,2.8-.19,2.55,2.55,0,0,1,1.39,2.06,4.2,4.2,0,0,1-.26,2.26,5.15,5.15,0,0,1-1.35,2,7.3,7.3,0,0,1-1.86,1.28l-2,.95.67,4.23a.61.61,0,0,0,.26.47.49.49,0,0,0,.47,0l1.26-.58.13.81-5.86,2.72-.12-.81,1-.46a1,1,0,0,0,.46-.42,1,1,0,0,0,.08-.62l-1.56-9.88a.56.56,0,0,0-.26-.44.43.43,0,0,0-.44,0l-1.06.49Z" transform="translate(-31 -179.5)"/><path class="e" d="M335.81,518.89l-.54,5.38,3.67-1.46Zm.37-3.57,7.39,9.21a1.34,1.34,0,0,0,.59.46,1,1,0,0,0,.63-.06l.42-.17.21.76L340,527.67l-.22-.77.51-.2a1.87,1.87,0,0,0,.78-.47.46.46,0,0,0,.12-.46,1,1,0,0,0-.21-.38l-1.53-1.91-4.31,1.72-.12,1.19a3.13,3.13,0,0,0,0,1.06,1,1,0,0,0,.61.72,1.53,1.53,0,0,0,1.12-.07l.37-.15.21.77L333,530.45l-.22-.76.25-.1a1.37,1.37,0,0,0,.67-.57,3.31,3.31,0,0,0,.41-1.3l1.21-12.06.85-.34" transform="translate(-31 -179.5)"/><path class="e" d="M339.91,513.9l9.68-4.32,2.33,4.26-.68.31a9.75,9.75,0,0,0-1.67-1.92,3.29,3.29,0,0,0-1.41-.73,2.15,2.15,0,0,0-1.23.15.76.76,0,0,0-.43.36.58.58,0,0,0,.05.49l4.25,8.92a.72.72,0,0,0,.36.35.58.58,0,0,0,.45,0l1.26-.57.35.73-5.93,2.65-.34-.73,1.19-.54a.62.62,0,0,0,.36-.35.66.66,0,0,0-.05-.49l-4.24-8.87a.66.66,0,0,0-.38-.39.82.82,0,0,0-.57.08c-1.27.57-1.56,2.16-.84,4.79l-.66.3Z" transform="translate(-31 -179.5)"/><path class="e" d="M357.08,512.16l.89-.48a3,3,0,0,0,1.54-1.66,2.61,2.61,0,0,0-.32-2,2.33,2.33,0,0,0-1.29-1.33,2.73,2.73,0,0,0-2,.43c-.45.25-.7.45-.76.62a1.17,1.17,0,0,0,.18.8ZM350.8,509l5.5-3a5.92,5.92,0,0,1,2.37-.8,2.91,2.91,0,0,1,1.75.34,2.76,2.76,0,0,1,1.12,1.22,2.8,2.8,0,0,1,0,2.61,5.91,5.91,0,0,1-2.06,2.09,3.4,3.4,0,0,1,1.51-.22,3,3,0,0,1,1.26.52,9.39,9.39,0,0,1,1.7,1.62,3.68,3.68,0,0,0,.78.77.41.41,0,0,0,.4,0c.31-.17.27-.73-.11-1.68l.62-.34a4,4,0,0,1,.43,2.4,2.14,2.14,0,0,1-1.16,1.42,2,2,0,0,1-1.23.29,2.05,2.05,0,0,1-1.06-.55,11.72,11.72,0,0,1-1.12-1.37,12.07,12.07,0,0,0-1.42-1.68,1.83,1.83,0,0,0-.91-.44,1.58,1.58,0,0,0-.94.2l-.78.42,2.07,4.22a.6.6,0,0,0,.36.34.81.81,0,0,0,.59-.07l1-.52.35.73-5.33,2.87-.36-.72.83-.45a.72.72,0,0,0,.39-.44.84.84,0,0,0-.08-.59L353,509.59a.89.89,0,0,0-.41-.44.64.64,0,0,0-.51.07l-.89.48-.36-.73" transform="translate(-31 -179.5)"/><path class="e" d="M365.77,500.5a2.61,2.61,0,0,0-.91,1.48,4.36,4.36,0,0,0,.21,2.19A16.58,16.58,0,0,0,369,510a3.21,3.21,0,0,0,1.83.78,2.29,2.29,0,0,0,1.59-.56,2.77,2.77,0,0,0,.95-2.49,10,10,0,0,0-2-4.36,12.3,12.3,0,0,0-2.24-2.65,3.08,3.08,0,0,0-1.79-.76A2.33,2.33,0,0,0,365.77,500.5Zm-.5-.67a5,5,0,0,1,2.78-1.14,5.21,5.21,0,0,1,3,.64,7.27,7.27,0,0,1,2.52,2.35,7.75,7.75,0,0,1,1.43,5.05,5.77,5.77,0,0,1-2.12,4.22,4.7,4.7,0,0,1-2.77,1.14,5.41,5.41,0,0,1-2.93-.66,7.24,7.24,0,0,1-2.54-2.39,7.76,7.76,0,0,1-1.45-5,5.72,5.72,0,0,1,2.09-4.17" transform="translate(-31 -179.5)"/><path class="e" d="M370.51,496.43l-.48-.64,3.22-5.31.48.65-.54.9a1.18,1.18,0,0,0-.22.68,1.2,1.2,0,0,0,.26.63l5.71,7.71q.35.46.54.45c.12,0,.29-.2.51-.56l.9-1.49a3.74,3.74,0,0,0,.36-2.34,10.88,10.88,0,0,0-1.21-3.63l.38-.62,2.8,4.21-5.52,9.07-.48-.65.56-.91a1,1,0,0,0-.07-1.2l-5.87-7.92c-.14-.2-.27-.28-.4-.26s-.27.15-.43.41l-.5.82" transform="translate(-31 -179.5)"/><path class="b" d="M268.25,330.62l1.45,7.92.92,1.67c-.28,0,5.36,11.76,5.36,11.76a17.59,17.59,0,0,1-5.07-4.91,9,9,0,0,1-1.71-7.44,14.52,14.52,0,0,1-4.94-4.7c-1.27-2.32-.55-5.94-.36-6.74a10.08,10.08,0,0,1-3.34-6.09c-1.09-6.8,2-10.65,2-10.65L272.91,310l31.6,10.82-4.25,30-11.39,5.54-9.9-2.77L276,352l-5.89-10.42-2.18-7.12-2.31-.8" transform="translate(-31 -179.5)"/><polyline class="b" points="311.56 156.6 311.94 153.29 317.4 138.61 317.4 132.18 307.36 130.5 285.29 145.37 266.69 163.62 265.81 172.75 280.56 174.32 302.4 172.47"/><path class="f" d="M322.09,350.5s-16.35,3.12-32.23-1.19c-1.42-.38-2.18-6.25-1.55-7.08s28.92-4.14,28.92-4.14Z" transform="translate(-31 -179.5)"/><path class="g" d="M259.48,499c.15.07.3.17.45.25,11.4,6.26,36.48,12.8,46.08,24.95,9.6-12.15,34.68-18.69,46.08-24.95.15-.08.3-.18.45-.25,24.76-12.93,20-33.33,19.19-36.19-.06-.22-.1-.34-.1-.34-5.23-20.68-4.95-27.65-4.95-27.65-2.48-30,11.57-46.57,11.57-46.57l-18.94-19.15H252.71L233.77,388.2s14,16.52,11.57,46.57c0,0,.28,7-5,27.65a18.26,18.26,0,0,0-.57,2.43c-1.09,6.2-1.72,22.93,19.66,34.1" transform="translate(-31 -179.5)"/><polyline class="b" points="330.46 296.62 219.11 296.4 274.98 200.07 330.46 296.62"/><path class="e" d="M313.08,445.79a7.33,7.33,0,0,0,.27-1.94,7.45,7.45,0,0,0-5.54-7.19c8.74-35.57.62-48.06-1.91-48.06s-10.64,12.49-1.9,48.06a7.44,7.44,0,0,0-5.54,7.19,7.76,7.76,0,0,0,.26,1.94c-35.17,10.22-41.93,23.49-40.66,25.69s16.13,3,42.57-22.38a7.42,7.42,0,0,0,10.55,0c26.44,25.35,41.31,24.57,42.57,22.38s-5.49-15.47-40.67-25.69" transform="translate(-31 -179.5)"/><path class="b" d="M338.78,286.58c-3.11-2.75-5.64-1.58-5.64-1.58h0a8.64,8.64,0,0,0-2.63-6.17,8.39,8.39,0,0,0-5.33-2.14,7.74,7.74,0,0,0-4.92-2.43,9.81,9.81,0,0,0-6.4,1.4c-1.68-2-4.94-4.48-10.58-4.4a16.7,16.7,0,0,0-12.46,5.54h-.1s-6.22-1.09-10.57,2.3a11.75,11.75,0,0,0-4,7.76L276,287s-4.87-.13-7,3.87l18.51,18.56,50.18-1.8,4-16.76S341.9,289.32,338.78,286.58Z" transform="translate(-31 -179.5)"/><path class="b" d="M349.57,314a4.21,4.21,0,0,0-1.7-3.72l.53,7.83A8.78,8.78,0,0,0,349.57,314Z" transform="translate(-31 -179.5)"/><path class="b" d="M347.47,317l-7.93,20.1c1.33-.46,7.46-2.12,9.46-9.08S347.47,317,347.47,317Z" transform="translate(-31 -179.5)"/><path class="b" d="M333.4,352a20,20,0,0,0,6.78-6.31,15.11,15.11,0,0,0,2.38-9.56Z" transform="translate(-31 -179.5)"/><path class="h" d="M269.21,339.57a8.91,8.91,0,0,0,1.7,7.49A17.59,17.59,0,0,0,276,352" transform="translate(-31 -179.5)"/><path class="h" d="M263.9,328.18s-1.08,4.11.36,6.74,5.32,5.24,6.36,5.29" transform="translate(-31 -179.5)"/><path class="h" d="M262.54,311.44s-3.07,3.85-2,10.65,7.69,8.53,7.69,8.53" transform="translate(-31 -179.5)"/><path class="h" d="M276,287s-4.87-.13-7,3.87" transform="translate(-31 -179.5)"/><path class="h" d="M276,288.82s-.18-6.33,4.17-9.71,10.57-2.3,10.57-2.3" transform="translate(-31 -179.5)"/><path class="h" d="M315.34,277.89s-2.88-6.77-12.06-6.63A16.37,16.37,0,0,0,290,277.89" transform="translate(-31 -179.5)"/><path class="h" d="M313.86,275.66a9.81,9.81,0,0,1,6.4-1.4c3.74.48,4.78,2.21,4.78,2.21" transform="translate(-31 -179.5)"/><path class="h" d="M321.16,276.81s6.38-1.09,9.35,2a8.44,8.44,0,0,1,2.47,7.75" transform="translate(-31 -179.5)"/><path class="h" d="M333.14,285s2.53-1.17,5.64,1.58,3,4.25,3,4.25" transform="translate(-31 -179.5)"/><path class="h" d="M348.4,318.11a8.78,8.78,0,0,0,1.17-4.11,4.21,4.21,0,0,0-1.7-3.72" transform="translate(-31 -179.5)"/><path class="h" d="M347.47,317S351,321,349,328s-8.13,8.62-9.46,9.08" transform="translate(-31 -179.5)"/><path class="h" d="M342.56,336.1a15.11,15.11,0,0,1-2.38,9.56A20,20,0,0,1,333.4,352" transform="translate(-31 -179.5)"/><path class="h" d="M270.91,289.88a5.26,5.26,0,0,1,2.93-1.57" transform="translate(-31 -179.5)"/><path class="h" d="M276.9,287.32s1.6-5.37,4.22-7.28c2.39-1.76,3.25-1.88,7-2.15" transform="translate(-31 -179.5)"/><path class="h" d="M279.37,284.56a8.59,8.59,0,0,1,3.1-3.65" transform="translate(-31 -179.5)"/><path class="h" d="M292.64,276.81s10.48-9.57,20.34,0" transform="translate(-31 -179.5)"/><path class="h" d="M315.63,275.64s3.9-1.8,7.31.34" transform="translate(-31 -179.5)"/><path class="h" d="M296.76,275.64a12.12,12.12,0,0,1,4-1.59,18.79,18.79,0,0,1,4-.17" transform="translate(-31 -179.5)"/><path class="h" d="M324.2,277.42s4.35.17,6.31,2.78,1.66,4.56,1.66,4.56" transform="translate(-31 -179.5)"/><path class="h" d="M327.29,279.27s2.84,1.09,3.22,3.46" transform="translate(-31 -179.5)"/><path class="h" d="M334.88,285.6s3.11.25,5.78,4" transform="translate(-31 -179.5)"/><path class="h" d="M336.67,287.07a7.84,7.84,0,0,1,2.57,2" transform="translate(-31 -179.5)"/><path class="h" d="M348.1,316.08a3.23,3.23,0,0,0,.3-2.68" transform="translate(-31 -179.5)"/><path class="h" d="M341.73,334.92s9.52-4,5.9-15.8" transform="translate(-31 -179.5)"/><path class="h" d="M344.34,331.74a10.12,10.12,0,0,0,2.67-9.65" transform="translate(-31 -179.5)"/><path class="h" d="M345.38,327.69a5.17,5.17,0,0,0,.76-4" transform="translate(-31 -179.5)"/><path class="h" d="M341.73,337.44s-.55,8.44-7.57,12.8" transform="translate(-31 -179.5)"/><path class="h" d="M340.4,338.53a14.33,14.33,0,0,1-4.17,8.53" transform="translate(-31 -179.5)"/><path class="h" d="M339,340.57a13.66,13.66,0,0,1-1.52,3.46" transform="translate(-31 -179.5)"/><path class="h" d="M261.82,314.82s-2.53,8.57,3.52,12.62" transform="translate(-31 -179.5)"/><path class="h" d="M262.76,316.08s-1.16,6.45,2.29,9.15" transform="translate(-31 -179.5)"/><path class="h" d="M263.81,318.56a7.24,7.24,0,0,0,.48,2.89" transform="translate(-31 -179.5)"/><path class="h" d="M264.57,330.1s-1.13,4.77,4.24,8.09" transform="translate(-31 -179.5)"/><path class="h" d="M265.6,331.77a6.77,6.77,0,0,0,2.22,4.33" transform="translate(-31 -179.5)"/><path class="h" d="M266.71,332.09a3.41,3.41,0,0,0,.79,2.1" transform="translate(-31 -179.5)"/><path class="h" d="M270.12,342.77a13.94,13.94,0,0,0,4.64,7.14" transform="translate(-31 -179.5)"/><path class="h" d="M271.89,344.4a7,7,0,0,0,2,3.12" transform="translate(-31 -179.5)"/><path class="i" d="M342.47,352.25s.67-1.73,4.6-1.55,4.73,1.93,5,3.21,1.49,6.36-.81,7.31-3.86.79-5,0c-.82-.56-.82-.75-.82-.75a4.27,4.27,0,0,1-3,1.43,12.82,12.82,0,0,1-4.47-1.43l-6.29-4.56L333.4,352s.88-1.15,4.06-1.12A8.9,8.9,0,0,1,342.47,352.25Z" transform="translate(-31 -179.5)"/><path class="j" d="M333.4,352s1.56,3,2.51,4.85a39.42,39.42,0,0,0,2.09,3.65,5.8,5.8,0,0,1-3.58,1.43,7.86,7.86,0,0,1-4.34-1.7,4,4,0,0,1-3.24,1.7,5.86,5.86,0,0,1-4.78-2.44,10.89,10.89,0,0,0-3.33-2.52v-5.39a11.45,11.45,0,0,1,4.33-.7,7.7,7.7,0,0,1,4.05,1.4s-.13-1.38,2.57-1.41S333.4,352,333.4,352Z" transform="translate(-31 -179.5)"/><path class="i" d="M304.05,356.39l-.23-4.42s.77-1.52,1.89-1.27,2.83.72,2.83.72l7-1.51,3.2,2.34a21,21,0,0,0,1.49,4.14,24.66,24.66,0,0,0,1.85,3.07s-1.84,2.45-4.11,2.44a7.4,7.4,0,0,1-4.05-1.36,2.79,2.79,0,0,1-2.61,1.36,7.37,7.37,0,0,1-3.84-1.43Z" transform="translate(-31 -179.5)"/><path class="j" d="M299.11,360.54a5.42,5.42,0,0,1-3.74,1.36c-2.28-.07-4.11-1-4.41-1.56s-3.43-1.83-3.56-3.59a17.13,17.13,0,0,1,.35-4,5.91,5.91,0,0,1,3.21-1.9,56,56,0,0,1,7.69,0h4.14a1.72,1.72,0,0,1,1,1.12c.36.93.95,2.89,2,5.26a27.88,27.88,0,0,0,1.62,3.24,6.58,6.58,0,0,1-4,1.43C301.07,361.9,299.45,361.08,299.11,360.54Z" transform="translate(-31 -179.5)"/><path class="j" d="M265.63,352.25s1.69-1.5,3.18-1.4a9,9,0,0,1,3.45,1.4s1.89.31,3.18,3.15a10,10,0,0,1,1,4.94,11,11,0,0,1-4.19,1.56c-2,.13-4.8-1.9-4.8-1.9s-.61,2-3.52,1.9-5.34-.55-5.89-3.25-.4-5.82,1.83-7.17S264.68,351.4,265.63,352.25Z" transform="translate(-31 -179.5)"/><path class="i" d="M276.45,360.34a23.6,23.6,0,0,1-2.7-4.26c-.82-1.9-1.49-3.83-1.49-3.83a3.18,3.18,0,0,1,2.84-1.72,12.87,12.87,0,0,1,4.94,1.72,3.87,3.87,0,0,1,3.51-1.72c1.15,0,3.66.92,4.2,2.22s.9,3,1.67,4.55,1.54,3,1.54,3a5.11,5.11,0,0,1-3.56,1.56,5.93,5.93,0,0,1-3.85-1.09,3,3,0,0,1-2.7,1.09A9.85,9.85,0,0,1,276.45,360.34Z" transform="translate(-31 -179.5)"/><path class="h" d="M267.91,354.32a5.31,5.31,0,0,0-2.28-2.07" transform="translate(-31 -179.5)"/><path class="h" d="M267.46,360a3,3,0,0,0-1.45-.81" transform="translate(-31 -179.5)"/><path class="k" d="M269.58,353.87a1,1,0,0,0-1.67.45" transform="translate(-31 -179.5)"/><path class="k" d="M263,359.6s1.08,2,3-.41" transform="translate(-31 -179.5)"/><path class="h" d="M280,352.25s.94.79,2,1.68a8.46,8.46,0,0,0,1.48,1.07" transform="translate(-31 -179.5)"/><path class="h" d="M283.55,360.81a1.49,1.49,0,0,1-.4-1" transform="translate(-31 -179.5)"/><path class="h" d="M299.11,360.54a5,5,0,0,1-1.42-1.08" transform="translate(-31 -179.5)"/><path class="h" d="M313.9,360.54a4.18,4.18,0,0,0-1.53-1.35" transform="translate(-31 -179.5)"/><path class="h" d="M312.15,352.25a4.06,4.06,0,0,1,1.17,1.57" transform="translate(-31 -179.5)"/><path class="h" d="M327.11,352.25a5.57,5.57,0,0,1,1.58,2.07" transform="translate(-31 -179.5)"/><path class="h" d="M330.08,360.2A3.52,3.52,0,0,0,327.9,359" transform="translate(-31 -179.5)"/><path class="h" d="M342.47,352.25a5.75,5.75,0,0,1,1.69,1.57" transform="translate(-31 -179.5)"/><path class="h" d="M345.44,360.47a3.81,3.81,0,0,0-1.51-1.28" transform="translate(-31 -179.5)"/><path class="k" d="M285.77,354.32s-2.62-2.07-2.22.68" transform="translate(-31 -179.5)"/><path class="k" d="M278.6,359.79a3,3,0,0,0,2,.6c1-.16.63-1.2.63-1.2s.27.79,1.9.6" transform="translate(-31 -179.5)"/><path class="k" d="M294.56,359.46a1.42,1.42,0,0,0,1.11.54c.45,0,.94.05,1-.54s.48-.45,1.05,0" transform="translate(-31 -179.5)"/><path class="k" d="M310.36,359.87s.19.22,1.15.13,0-1.08.86-.81" transform="translate(-31 -179.5)"/><path class="k" d="M314.4,353.12s-1.08-.16-1.08.7" transform="translate(-31 -179.5)"/><path class="k" d="M326.44,360.2a1.76,1.76,0,0,0,1.39,0c.64-.33-1.64-1.64.07-1.19" transform="translate(-31 -179.5)"/><path class="k" d="M330.51,353.82a1.09,1.09,0,0,0-1.82.5" transform="translate(-31 -179.5)"/><path class="k" d="M346.5,353.11s-1.35-1.55-2.34.71" transform="translate(-31 -179.5)"/><path class="k" d="M341.45,360.2s1.24.84,1.86.52-.73-1.4-.19-1.71,1,.27,1,.27" transform="translate(-31 -179.5)"/><path class="l" d="M301.68,345.91l.95,2.1a2.47,2.47,0,0,0,2.21,1.89c1.89.23,2.79-3.46,2.79-3.46L312.91,329h7.91L332,315.11l4.72-14.86-2.79-.06-17.68,5.58-20.07,4.51-8.12-3.2-18.2-14.56-4.76-1.28v4.12l22.65,24.83L290,332.53l2.84,1.19,5,3.55,3.86,7.54.72,2.25" transform="translate(-31 -179.5)"/><path class="f" d="M319,345.91s2.76,3.49,4.4,3.95,1.91-2.53,1.91-2.53l-5.77-6.76-1.63,1.82Z" transform="translate(-31 -179.5)"/><path class="f" d="M319,341.39a30.31,30.31,0,0,0,3.87,5.05c1.9,1.79,3.79,2.33,4.6,1.57s0-3.84,0-3.84l-9.28-9.4-1.9,1.83Z" transform="translate(-31 -179.5)"/><path class="f" d="M329.1,341.39s2.28,3,1.41,4.52-4.66-.28-8.45-4.52a35.36,35.36,0,0,1-5-6.62l.9-4.15Z" transform="translate(-31 -179.5)"/><path class="f" d="M291.67,345.35s-3,4.78-4.27,4-2-2.57-1.41-3.4,5.68-5.7,5.68-5.7Z" transform="translate(-31 -179.5)"/><path class="f" d="M291.76,341.11a36.26,36.26,0,0,1-3.52,4.15c-1.62,1.53-3.42,3.24-4.87,2.61s-1.08-2.61-1.08-2.61l10.26-10.49v4.8Z" transform="translate(-31 -179.5)"/><path class="f" d="M292.39,335.43s-4.87,6.49-6.76,8.11-3.25,3-4.87,2.08,0-3.88,0-3.88l10.91-10.91,1.53-.21v1.47Z" transform="translate(-31 -179.5)"/><path class="f" d="M293.38,326.23a49.63,49.63,0,0,0-8.56,6.58c-3.07,3.25-7.13,7.85-6.05,9.38s4.87-1.08,8.84-5.41,6.95-7.67,6.95-7.67Z" transform="translate(-31 -179.5)"/><path class="m" d="M304.84,339.57s-1,7.67-2.44,7.49l-2-1.15" transform="translate(-31 -179.5)"/><path class="l" d="M305.74,339.57s1,8.57,2.52,8.44,1.81-.95,1.81-.95" transform="translate(-31 -179.5)"/><path class="n" d="M283.55,329.74s1.45,4,5.87-1.53a11.49,11.49,0,0,0,1.71-11.45l-2.41.27Z" transform="translate(-31 -179.5)"/><path class="n" d="M280,329.56s.72,4.06,4.51,0a21.71,21.71,0,0,0,4.87-9.29l-3.65-1.53Z" transform="translate(-31 -179.5)"/><path class="n" d="M275.26,326.23s-.72,3.55.9,4.39,4-.24,6.09-3.67,5-7.76,5.15-9.11-5.15,0-5.15,0Z" transform="translate(-31 -179.5)"/><path class="n" d="M272.37,322.71s-1.08,2.52,0,3a4.64,4.64,0,0,0,5.23-.64,66.42,66.42,0,0,0,5.95-7c.39-.54-3.51-4-3.51-4Z" transform="translate(-31 -179.5)"/><path class="n" d="M269.67,319.37s-.18,2.26.54,2.8a2.3,2.3,0,0,0,2.16.54c1-.18,5.5-4.15,7.67-7.22s1.21-3.24,1.21-3.24l-4.28-.72Z" transform="translate(-31 -179.5)"/><path class="n" d="M266.51,316s-.72,2.07.63,2.79,2.62,1,5.14-.9a44.77,44.77,0,0,0,5.46-5.23l-1.22-4.33-3.25.63Z" transform="translate(-31 -179.5)"/><path class="n" d="M264.07,313.78a2.83,2.83,0,0,0,.82,1.62,4.71,4.71,0,0,0,4.76-.81,48.85,48.85,0,0,0,4.8-5.41l1.1-1.89L272,305.66Z" transform="translate(-31 -179.5)"/><path class="n" d="M261.82,312s1.17,3,5.32,0a27.31,27.31,0,0,0,5.5-4.78l-2.83-1.54Z" transform="translate(-31 -179.5)"/><path class="n" d="M259.93,309.48s-.51,3.26,3.51,2,7.85-5.87,7.85-5.87l-2.71-3.78Z" transform="translate(-31 -179.5)"/><path class="n" d="M255.87,308.28s1.71,3.61,6.49,0a49.93,49.93,0,0,0,6.31-5.32l1-3.43-1.52-1-3,2.07Z" transform="translate(-31 -179.5)"/><path class="n" d="M251.9,307.56s1.17,2.16,5.59,0a35.19,35.19,0,0,0,9.74-7l2-2.07-2.89-1.26-7,4.69Z" transform="translate(-31 -179.5)"/><path class="n" d="M247.39,306s-.18,1.89,2.16,1.71,4.87-1.1,8.39-3.53a55.93,55.93,0,0,0,6.77-5.67h-2.89Z" transform="translate(-31 -179.5)"/><path class="n" d="M242.07,303.15a3.09,3.09,0,0,0,2.79,2.51,12.59,12.59,0,0,0,8.84-1.89c3.43-2.07,8.12-4.51,8.12-4.51l-1.26-1.62-13.62,4.09Z" transform="translate(-31 -179.5)"/><path class="n" d="M241.62,299.17s-2.35.72-3.43.9-1.72,1.87,1.44,2.78a18.88,18.88,0,0,0,9.2-.52,114.07,114.07,0,0,0,12.45-4.69l-3.16-2Z" transform="translate(-31 -179.5)"/><path class="n" d="M240.81,294.48s-4.51.36-6.41.36-3.87-.54-3.24.81,2.52,1.36,5.41,2,4.6.53,5.5,1.44,1.62,2.08,5.32,1.17,12.51-4.05,12.51-4.05L257.49,293Z" transform="translate(-31 -179.5)"/><path class="n" d="M239.18,289.43s-4.24-.54-7.57-1.26-5.77-1.71-5.68-.9.81,1.89,3.87,2.79a35.4,35.4,0,0,1,7,2.53,14.91,14.91,0,0,1,3.15,2.34c.73.72,1.18,1.18,3.52,1.08a79.72,79.72,0,0,0,13.08-2.25c2.7-.9.54-3.88.54-3.88Z" transform="translate(-31 -179.5)"/><path class="n" d="M233.86,281.5s-6.13-2-9.47-3.34-5.32-2.71-5.32-1.35.9,3.42,4.24,4.69a56.11,56.11,0,0,1,10.55,5.05c2.8,1.89,4.42,2.79,5,3.78a3.09,3.09,0,0,0,3.16,1.63c1.89,0,9,.25,12.62-.47s0-3.59,0-3.59Z" transform="translate(-31 -179.5)"/><path class="o" d="M250.73,284.56a113.81,113.81,0,0,1-12.45-4.69c-5.41-2.52-9.11-4.55-9.29-3.62s.73,3.07,2.44,4,6,3,7.84,4.27a10.92,10.92,0,0,1,2.8,3c.63.72,1.57,1.17,3.4,1.17s7.42.45,9.31,0S250.73,284.56,250.73,284.56Z" transform="translate(-31 -179.5)"/><path class="n" d="M324.77,328.84s.9,1.63,0,2.53-1.37.9-1.37.9l-3.76-4.73a18.19,18.19,0,0,0-1.18-2.49,5.64,5.64,0,0,0-1.36-1.8s-.27-3.52.81-3.61,3.7,2,3.7,2l4.42,6.31Z" transform="translate(-31 -179.5)"/><path class="n" d="M321.16,322.17s4.06,7.61,4.87,8.45a3.38,3.38,0,0,0,3.25.75c.81-.36.9-1.45.72-2.71s-6.1-10.55-6.1-10.55l-1.84,1.53-1.85,1Z" transform="translate(-31 -179.5)"/><path class="n" d="M335.14,326.77s.54,2.16-.54,3-3.52,1.54-5.86-2.07-5.68-10.43-5.68-10.43l4.77-1.2,7.45,10.19Z" transform="translate(-31 -179.5)"/><path class="n" d="M327.83,317.24s2.8,5.2,4.33,6.82,4.15,3.79,5.6,2.62.72-3.46.72-3.46l-8.4-10.43-2.79.36Z" transform="translate(-31 -179.5)"/><path class="n" d="M330.71,314.68a28,28,0,0,0,3.26,5.78c1.62,1.89,4.87,3.72,5.95,2.76s0-3.58,0-3.58l-5.77-8.2-2.35-.91-1.29.73Z" transform="translate(-31 -179.5)"/><path class="n" d="M344.52,316a2.78,2.78,0,0,1-.9,2.7c-1.36,1.44-4,1.62-6.32-1.35s-4.32-5.86-4.32-5.86l1.44-4h1.44Z" transform="translate(-31 -179.5)"/><path class="n" d="M346.59,313.66s-.09,4.27-5,1.47a16.81,16.81,0,0,1-6.76-7.57l3.25-1.62Z" transform="translate(-31 -179.5)"/><path class="n" d="M348.4,311s.36,4.58-4.33,1.78a19.93,19.93,0,0,1-6.59-6l3.25-3,6.4,5.41Z" transform="translate(-31 -179.5)"/><path class="n" d="M350.74,310.08s-1.44,1.9-5.32-.45a22.39,22.39,0,0,1-5.77-4.78l1.53-3.51h1.76l7.8,7.44Z" transform="translate(-31 -179.5)"/><path class="n" d="M354.53,308.78s-1.08,3-5.59,0a39.65,39.65,0,0,1-8.21-8v-2.25l2.21-.45,3.65,3.25Z" transform="translate(-31 -179.5)"/><path class="n" d="M358.86,307.56s-1.54,3.79-8.12-.63-7.8-8.39-7.8-8.39l3-1.62,4.24,1.17,9.56,8.57Z" transform="translate(-31 -179.5)"/><path class="n" d="M365.08,305.48s-2.79,5.24-9.11.59-7.21-8-7.21-8l1.17-1.17,7.67,5.14Z" transform="translate(-31 -179.5)"/><path class="n" d="M368.51,303s-1.81,3.94-8.75,1.59-12.13-8.38-12.13-8.38l2.48-.73,8,3.88,10.89,2Z" transform="translate(-31 -179.5)"/><path class="n" d="M370.22,298.63s2.62.54,3.34,1.35-.54,2.42-2.08,2.48a39.16,39.16,0,0,1-13.19-1.92c-6-2-7.55-3.62-7.55-3.62l1.72-1.45,11.63,1Z" transform="translate(-31 -179.5)"/><path class="n" d="M370.85,294.3s4.51.45,6.23.36,3-.63,3,.45-.81,1.27-3.52,1.81-5.95,1.62-6.58,2.43-1.08.63-2.61.54a171.09,171.09,0,0,1-18.13-4.42c-3.16-1.17,4-3.42,4-3.42Z" transform="translate(-31 -179.5)"/><path class="n" d="M372.48,288s5.59-.27,8-.72,4.6-1.09,4.78-.36-.45,1.8-3.15,2.7-5.41,1.35-7.13,2.44-2.48,1.37-3,2.35-2.37,1.25-4.53,1.07-13.17-2-15.25-2.52,3.16-2.62,3.16-2.62l13.62-.18Z" transform="translate(-31 -179.5)"/><path class="n" d="M372.3,283s4.78-1.9,8.2-2.89a70.74,70.74,0,0,0,8.66-3.33c1.62-.73,3.16-1.09,2.53.54s-2,2.88-6.86,4.78-8.48,3.6-9.83,5.05a25.44,25.44,0,0,0-2.7,3.15c-.91,1.27-1,1.81-3.8,1.72s-14.15-.64-15.95-1,2-2.61,2-2.61l8.48-1.86Z" transform="translate(-31 -179.5)"/><path class="o" d="M362.74,283.66s9.92-3.79,13.89-5.59,5.05-2.48,5.5-1.87-2.38,3.48-4.32,4.44a33.45,33.45,0,0,0-6.78,4,16,16,0,0,0-2.53,2.44,3.12,3.12,0,0,1-3,1.44c-1.44.09-8.29.81-9.65.36s3.88-3.34,3.88-3.34Z" transform="translate(-31 -179.5)"/><path class="f" d="M316.29,324.87a55.7,55.7,0,0,1,8.21,7.31c5.05,5.23,6.31,9.29,5.95,10s-4.42-.36-8.66-5a54.76,54.76,0,0,1-5.5-6.61Z" transform="translate(-31 -179.5)"/><path class="l" d="M260.2,298.51s.36,1.92,3.69.84a17.29,17.29,0,0,0,3.62-1.35l.17-2.13h-2Z" transform="translate(-31 -179.5)"/><path class="l" d="M258.75,296.74s-.09,1.74,1.45,1.77a12.2,12.2,0,0,0,5.5-1.59c2-1.05,0-2.21,0-2.21Z" transform="translate(-31 -179.5)"/><path class="l" d="M257.31,294.59s-.54.78,0,1.28.36.92,3.79.74a6.76,6.76,0,0,0,5.07-2.58l-1.12-.89Z" transform="translate(-31 -179.5)"/><path class="l" d="M255.78,292.05a2.28,2.28,0,0,0,1.53,2.54c1.89.7,7.74-.56,7.74-.56l-1.11-1.44Z" transform="translate(-31 -179.5)"/><path class="l" d="M253.39,288.71s-.95,2.07,2.39,3.34a25.35,25.35,0,0,0,8.16,1.09v-2.31Z" transform="translate(-31 -179.5)"/><path class="l" d="M350.2,298.9s-.72,2.35-5.41,0-.54-3.25-.54-3.25l6.31,2.15Z" transform="translate(-31 -179.5)"/><path class="l" d="M352,296.92s.23,2.07-1.75,2-7.21-3.25-7.21-3.25l2.25-1.62,4.78,1.62Z" transform="translate(-31 -179.5)"/><path class="l" d="M353.63,294a2.61,2.61,0,0,1-1.68,2.89c-2,.66-7.61-2.89-7.61-2.89l2.7-2.79Z" transform="translate(-31 -179.5)"/><path class="l" d="M356.06,291.24a2.64,2.64,0,0,1-2.43,2.79c-2.53.18-8.57-1.4-8.57-1.4l3.07-2.13Z" transform="translate(-31 -179.5)"/><path class="l" d="M359.18,288.08s0,2.16-3.12,3.16-8.36.27-8.36.27l1.3-2.08Z" transform="translate(-31 -179.5)"/><path class="p" d="M314.13,315.11a30.21,30.21,0,0,0,10.46-4.41c5-3.41,9.33-8.87,10.62-9.88s6.66-6.67,7.44-7.17,4.65-1.13,4.65-1.13l-4.65,4.67-1.56,2.9-.45,3.72L338.49,307l-6.24,3.25-1.17,2.6-1.76,1.59L326,317.66l-3.53,1.09-5.41,2.35" transform="translate(-31 -179.5)"/><path class="q" d="M293.71,310.7a46.26,46.26,0,0,1,4.18,12c.95,5.88,6.95,4.93,6.95,4.93s6.45.84,7.39-4.93,2.49-8.13,4.84-10.21S293.71,310.7,293.71,310.7Z" transform="translate(-31 -179.5)"/><path class="r" d="M268,294.93l-2-.18c-2-.18-2.89-1-3.34-1.85a2.5,2.5,0,0,1,0-1.57l-1.35-.19a23.09,23.09,0,0,1-4.51-1,25,25,0,0,1-6.22-3.06c-1.09-.91-2.08-2.44-2-3.25s1-.45,1.72,0a100.89,100.89,0,0,0,9.65,3c4.14,1.17,9.74,2.88,12.89,6.31a36.54,36.54,0,0,0,15.24,9.74c7,2.34,10.65-2.35,10.65-2.35l17.4,2.26s2,.9,5.77,0a24.11,24.11,0,0,0,10.1-5c2.89-2.44,6.23-5.5,7-6.31s3.88-3.25,6-3.79,4.78-1.08,7-1.54a58.1,58.1,0,0,0,8.21-2.25c1.35-.63,2.26-1.15,2.44-.57s0,3.1-3.25,4.54-4.6,2.16-6.4,2.34l-1.81.18-3.05,1.85c-2,.68-4.3,0-6.45,3.26-1.15,1.75-6.24,5.18-7.45,6.26s-2.75,3.13-4,3.54-5.77,2.14-8.18,3.22-5.91,4.69-7.25,5.9A14.38,14.38,0,0,1,309.4,317c-2.31.46-3.09.27-6.18,0s-4.69-2.82-6.84-4.7-5.77-2.68-7.78-3.08a5.88,5.88,0,0,1-3.89-1.88c-1.75-1.48-5.77-4.16-7.65-6s-6.34-5.71-7-6.57c-2.4-3.24-4.43-1.75-7.52-2.82" transform="translate(-31 -179.5)"/><path class="p" d="M293.29,315.41a77.31,77.31,0,0,1-8.93-5.67v0h0l-.93-.72-1-.78.06-.13-.21,0c-3.45-2.63-6.68-4.67-8.59-6.48l.05,0-.13-.05a8.21,8.21,0,0,1-.77-.81c-1.85-2.23-4.28-4.62-4.69-6.16a18.44,18.44,0,0,1-.45-2s-.82.29-3.7-.81c-2-.76-1.39-.74-1.26,1.12.1,1.37,2.33,1.69,2.33,1.69s-2.15,1.79.65,2.33c.53.1,1,.16,1.39.2l.05.07a1.66,1.66,0,0,0-.81.81c-.54.9.36,1.08,1.35,1.62a3.42,3.42,0,0,0,1.62.24l0,.05-.13-.05s-2.34,1.84-1.53,2.83a2.16,2.16,0,0,0,1.89.66v0h-.36a1.88,1.88,0,0,0,0,2.29,1.58,1.58,0,0,0,1.41.49h0s.31,2.22,2.2,1.14l.33-.2.12.11-.45.09s.45,1.89,2.17,1.71a3.19,3.19,0,0,0,1-.28s-1.13,3.08,0,4.07a2,2,0,0,0,1.89.43h0s-.09,1.28.72,1.64a1.6,1.6,0,0,0,1.19.2h0c-.58.29.27,1.7,1.8,1.34a1.32,1.32,0,0,0,1.53,1.88h0s-.27,1.27.72,1.45a1.83,1.83,0,0,0,1.18-.26s-.4,1.8,1,1.62a3.54,3.54,0,0,0,1.55-.76h0s0,1,.56,1.3,1.55-.49,2.33-1.32h0s-1,1.68,0,2.31,3-1.28,3.52-2.31a16.66,16.66,0,0,0,1-2.65Zm-16.39-7.23h0Zm10.8,12c.19-.15.38-.32.56-.49h.05Z" transform="translate(-31 -179.5)"/><path class="p" d="M343.08,294.66c4.87.72,4.22-2.14,4.22-2.14Z" transform="translate(-31 -179.5)"/><path class="p" d="M345.87,294.78l-3.7.78C345.6,296.74,345.87,294.78,345.87,294.78Z" transform="translate(-31 -179.5)"/><path class="p" d="M344,295.94l-4.1,1.88c2.52,1.8,4.51,1.8,5.28.54S344,295.94,344,295.94Z" transform="translate(-31 -179.5)"/><path class="p" d="M336.67,300.25a9.71,9.71,0,0,0,3.67,2.37l-5.92-.83a40.31,40.31,0,0,0,3.52,3,.71.71,0,0,0,.14.1l-3.66-1.36,1.44,2c1.44,2,2.71,2.92,3.76,2.56s.3-2.56.3-2.56h0a1.78,1.78,0,0,0,1.54-.78,2,2,0,0,0,0-2h-.06a1.16,1.16,0,0,0,.78-.35c1.09-1.17-.43-3.56-.43-3.56Z" transform="translate(-31 -179.5)"/><path class="p" d="M332.61,304.85a14.93,14.93,0,0,0,1.36,2.67c.9,1.4,2.52,2.29,3.33,1.49s.4-1.42.4-1.42Z" transform="translate(-31 -179.5)"/><path class="p" d="M328.56,308.18a24.19,24.19,0,0,0,2.07,3.26,2.37,2.37,0,0,0,3.79,0c1-1.18.06-3.26.06-3.26Z" transform="translate(-31 -179.5)"/><path class="p" d="M328.56,312.42c1.35,2.15,2.07,1.81,2.61,1.53s.55-1.57.55-1.57l-4.79-2.66S327.2,310.26,328.56,312.42Z" transform="translate(-31 -179.5)"/><path class="p" d="M329.87,314,325,311.44a11.11,11.11,0,0,0,.63,1.35,10,10,0,0,0,.94,1.42l-3-2.27c2.25,5,4,5.36,4.6,4.91s0-1.44,0-1.44l-.06-.05a1.37,1.37,0,0,0,1.18-.25C330.36,314.37,329.87,314,329.87,314Z" transform="translate(-31 -179.5)"/><path class="p" d="M321.43,313.42a40.44,40.44,0,0,0,2.17,4c.81,1.17,2.7,1.91,3.33,1.3s0-2,0-2Z" transform="translate(-31 -179.5)"/><path class="p" d="M318.82,314.47a15.69,15.69,0,0,0,1.08,3.19,6.31,6.31,0,0,0,.71,1.24l-4-3.49a17.43,17.43,0,0,0,1.75,5.52l-4.27-5.82a18,18,0,0,0,2.07,7c1.62,2.63,2.62-.6,2.62-.6l0,0c1.69,1.93,3.29-1.26,3.29-1.26h0a1.94,1.94,0,0,0,1.87,0c1.17-.7.36-2,.36-2Z" transform="translate(-31 -179.5)"/><path class="s" d="M301.22,287.57s.46,1.82,1.61,2.22,1.22,1.17.27,1.26a5.2,5.2,0,0,1-1.88-.22,2.06,2.06,0,0,0-1.13.22" transform="translate(-31 -179.5)"/><path class="t" d="M316.2,302.78s-.79-.41-2.07-3.53-.88-5.13-2.51-9.86-4.53-5.41-7.17-5.41a7.89,7.89,0,0,0-4.26,1.15,2.14,2.14,0,0,0-1.39,0c-.59.27-.64.47-.64.47a2.39,2.39,0,0,0-1.42,0,10.68,10.68,0,0,0-2.63,1.15c-.95.74-1.29,2.32,0,4.49,0-1.13.45-1.18.45-1.18h1c.81,0,2,.54,4.05,1.56s2,2.37,1.63,4.39a13.54,13.54,0,0,1-2.41,4.51l-1.11,2.66a5.44,5.44,0,0,0,2-.72c.54-.49.88-.85.88-.85a4.42,4.42,0,0,0,.26,2.34c.48.66,1.09,1.38,1.09,1.38a2.53,2.53,0,0,1,.48-1.8,4.33,4.33,0,0,0,.87-1.36,4,4,0,0,1,.61,1.69v1.47s1.49-1.11,1.69-1.83a7,7,0,0,0,1.36,2.16,1.78,1.78,0,0,1,.74-.9,2.86,2.86,0,0,0,1.15-1.23l.14-.35a9.42,9.42,0,0,0,1.08,1.58l.4.39a3.2,3.2,0,0,1,.41-1.2,2.71,2.71,0,0,0,.34-1.18l.95.73.33-1a8.6,8.6,0,0,0,1.63,1.49l.74.45a14.55,14.55,0,0,1-.2-1.55v-.41A13,13,0,0,1,316.2,302.78Z" transform="translate(-31 -179.5)"/><path class="u" d="M302.9,287.07s-.92,1.82.79,2,1-1.78,1-1.78" transform="translate(-31 -179.5)"/><path class="v" d="M301.22,287.57s.46,1.82,1.61,2.22,1.22,1.17.27,1.26a5.2,5.2,0,0,1-1.88-.22,2.06,2.06,0,0,0-1.13.22l-.51.57c-2-1-3.24-1.56-4.05-1.56h-1s-.45.05-.45,1.18c-1.29-2.17-.95-3.75,0-4.49a10.68,10.68,0,0,1,2.63-1.15,2.39,2.39,0,0,1,1.42,0s0-.2.64-.47a2.14,2.14,0,0,1,1.39,0s-.49,2,.67,2.36" transform="translate(-31 -179.5)"/><path class="w" d="M298.8,300.52s-3.61,4.69-10.65,2.35a36.54,36.54,0,0,1-15.24-9.74c-3.15-3.43-8.75-5.14-12.89-6.31a100.89,100.89,0,0,1-9.65-3c-.73-.45-1.63-.81-1.72,0s.9,2.34,2,3.25a25,25,0,0,0,6.22,3.06,23.09,23.09,0,0,0,4.51,1l1.35.19a2.5,2.5,0,0,0,0,1.57c.45.86,1.35,1.67,3.34,1.85l2,.18" transform="translate(-31 -179.5)"/><path class="w" d="M316.2,302.78s2,.9,5.77,0a24.11,24.11,0,0,0,10.1-5c2.89-2.44,6.23-5.5,7-6.31s3.88-3.25,6-3.79,4.78-1.08,7-1.54a58.1,58.1,0,0,0,8.21-2.25c1.35-.63,2.26-1.15,2.44-.57s0,3.1-3.25,4.54-4.6,2.16-6.4,2.34l-1.81.18" transform="translate(-31 -179.5)"/><path class="m" d="M348.49,288.08s3.05-.81,3.42.72-2,3-3.42,3.43a45,45,0,0,1-5.05.91" transform="translate(-31 -179.5)"/><path class="m" d="M263.17,289.07S261,291,264,291.78a19.54,19.54,0,0,0,3.7.81" transform="translate(-31 -179.5)"/><path class="m" d="M265.05,294.59s-2.15,1.79.65,2.33,3.51,0,3.51,0" transform="translate(-31 -179.5)"/><path class="m" d="M271.29,299.62s-2.62.54-3.61,0-1.89-.72-1.35-1.62,1-.84,1-.84" transform="translate(-31 -179.5)"/><path class="m" d="M269.21,299.86s-2.34,1.84-1.53,2.83,2.62.81,4.06,0,2-1.08,2-1.08" transform="translate(-31 -179.5)"/><path class="m" d="M269.21,303.37a1.88,1.88,0,0,0,0,2.29c.91,1.18,3.7,0,4.51-.72a6.23,6.23,0,0,0,1.27-1.57" transform="translate(-31 -179.5)"/><path class="m" d="M270.62,306.15s.31,2.22,2.2,1.14a7.58,7.58,0,0,0,2.8-2.89L276,304" transform="translate(-31 -179.5)"/><path class="m" d="M272.82,307.29s.45,1.89,2.17,1.71,3.06-1.89,3.6-2.43l.54-.54" transform="translate(-31 -179.5)"/><path class="l" d="M276,308.72s-1.13,3.08,0,4.07c1.44,1.26,3.43-.09,4.42-1.26a19,19,0,0,0,2.07-3.43" transform="translate(-31 -179.5)"/><path class="m" d="M277.87,313.22s-.09,1.28.72,1.64,1.36.66,3.34-1.56a12.11,12.11,0,0,0,2.44-3.58" transform="translate(-31 -179.5)"/><path class="m" d="M285.9,311.44s-2.8,4.6-4.33,5-2.38-1-1.8-1.34" transform="translate(-31 -179.5)"/><path class="m" d="M281.57,316.4a1.32,1.32,0,0,0,.45,1.71c1,.63,2-.27,2.8-.86a15.27,15.27,0,0,0,2.7-3.95" transform="translate(-31 -179.5)"/><path class="m" d="M283.1,318.28s-.27,1.27.72,1.45,2.44-1,3.07-2.07,2-3.71,2-3.71" transform="translate(-31 -179.5)"/><path class="m" d="M285,319.47s-.4,1.8,1,1.62,3.18-2.17,3.9-3.34a23.83,23.83,0,0,0,1.35-2.64" transform="translate(-31 -179.5)"/><path class="m" d="M287.52,320.33s0,1,.56,1.3c.79.45,2.42-1.34,3.14-2.26a33.8,33.8,0,0,0,2.07-3.56" transform="translate(-31 -179.5)"/><path class="m" d="M290.41,320.31s-1,1.68,0,2.31,3-1.28,3.52-2.31a16.66,16.66,0,0,0,1-2.65" transform="translate(-31 -179.5)"/><path class="m" d="M347.3,292.52s.65,2.86-4.22,2.14" transform="translate(-31 -179.5)"/><path class="m" d="M345.87,294.78s-.27,2-3.7.78" transform="translate(-31 -179.5)"/><path class="m" d="M344,295.94s2,1.16,1.18,2.42-2.76,1.26-5.28-.54" transform="translate(-31 -179.5)"/><path class="m" d="M341.74,298.86s1.52,2.39.43,3.56-4.23-.81-5.5-2.17" transform="translate(-31 -179.5)"/><path class="m" d="M341.45,302.77a2,2,0,0,1,0,2c-.63.9-1.89,1.18-3.51,0a40.31,40.31,0,0,1-3.52-3" transform="translate(-31 -179.5)"/><path class="m" d="M339.92,305.54s.75,2.2-.3,2.56-2.32-.51-3.76-2.56l-1.44-2" transform="translate(-31 -179.5)"/><path class="m" d="M337.7,307.59s.4.62-.4,1.42-2.43-.09-3.33-1.49a14.93,14.93,0,0,1-1.36-2.67" transform="translate(-31 -179.5)"/><path class="m" d="M334.48,308.18s.93,2.08-.06,3.26a2.37,2.37,0,0,1-3.79,0,24.19,24.19,0,0,1-2.07-3.26" transform="translate(-31 -179.5)"/><path class="m" d="M331.72,312.38s0,1.28-.55,1.57-1.26.62-2.61-1.53-1.63-2.7-1.63-2.7" transform="translate(-31 -179.5)"/><path class="m" d="M329.87,314s.49.42-.55,1.16-2.3.11-3.65-2.32a11.11,11.11,0,0,1-.63-1.35" transform="translate(-31 -179.5)"/><path class="m" d="M328.2,315.41s.63,1,0,1.44-2.35.1-4.6-4.91" transform="translate(-31 -179.5)"/><path class="m" d="M326.93,316.75s.63,1.39,0,2-2.52-.13-3.33-1.3a40.44,40.44,0,0,1-2.17-4" transform="translate(-31 -179.5)"/><path class="m" d="M324.32,318.2s.81,1.3-.36,2-3-.11-4.06-2.54a15.69,15.69,0,0,1-1.08-3.19" transform="translate(-31 -179.5)"/><path class="m" d="M322.09,320.2s-3.27,6.57-5.44-4.79" transform="translate(-31 -179.5)"/><path class="m" d="M318.82,321.49s-1,3.23-2.62.6a18,18,0,0,1-2.07-7" transform="translate(-31 -179.5)"/><path class="h" d="M301.21,296.31a.76.76,0,0,0,.14.53.26.26,0,0,0,.16.11c.08,0,.14-.08.18-.14a4.91,4.91,0,0,0,.7-1.63" transform="translate(-31 -179.5)"/><path class="h" d="M300.73,297.53a1.81,1.81,0,0,0,.23,1.08c.05.06.13.13.21.1s.05,0,.08-.06a4.63,4.63,0,0,0,.74-1.17" transform="translate(-31 -179.5)"/><path class="h" d="M299.49,299.66v.48a.56.56,0,0,0,.11.4.37.37,0,0,0,.38,0,.85.85,0,0,0,.33-.24,4.2,4.2,0,0,0,.7-1" transform="translate(-31 -179.5)"/><path class="h" d="M310.42,301.51l.49-1.27a3.05,3.05,0,0,0,.46.55,1,1,0,0,0,.64.29.2.2,0,0,0,.13,0,.31.31,0,0,0,.14-.16,3.48,3.48,0,0,0,.39-1.44" transform="translate(-31 -179.5)"/><path class="h" d="M310.22,299.59a1.74,1.74,0,0,0,.59-1.12,1.69,1.69,0,0,0,.3.7.88.88,0,0,0,.26.25.4.4,0,0,0,.35,0,.57.57,0,0,0,.26-.33,3.17,3.17,0,0,0,.24-1.55" transform="translate(-31 -179.5)"/><path class="h" d="M309.49,297.46a2.1,2.1,0,0,0,.8-1.41.37.37,0,0,0,.13.39c.11.11.24.18.35.28a.93.93,0,0,1,.32.76,4,4,0,0,0,.7-2.39,1.94,1.94,0,0,0,.55,1.57c.05,0,.12.1.18.06a.11.11,0,0,0,.06-.07,3.42,3.42,0,0,0,.36-2.15" transform="translate(-31 -179.5)"/><path class="h" d="M309.92,295.13a1.13,1.13,0,0,0,.38.19.2.2,0,0,0,.17,0,.24.24,0,0,0,.06-.09,3,3,0,0,0,.36-1.58,2.39,2.39,0,0,0,.36.59.42.42,0,0,0,.29.18c.17,0,.28-.18.34-.34a3.47,3.47,0,0,0,.25-1.31" transform="translate(-31 -179.5)"/><path class="h" d="M308.9,293.37a1.39,1.39,0,0,0,.44.36.26.26,0,0,0,.19,0c.05,0,.07-.07.1-.12a2,2,0,0,0-.14-1.93c.08.11.21.43.36.47s.32-.22.37-.36a1.11,1.11,0,0,0,0-.74,3,3,0,0,0-.33-.67l.57.64a.3.3,0,0,0,.2.13c.14,0,.19-.18.21-.31a6.72,6.72,0,0,0-.11-2.05" transform="translate(-31 -179.5)"/><path class="h" d="M310.15,292l.2.35a1.54,1.54,0,0,0,.41.53.21.21,0,0,0,.21.06.19.19,0,0,0,.1-.08,1,1,0,0,0,.18-.43,4,4,0,0,0,.11-1.28" transform="translate(-31 -179.5)"/><path class="h" d="M316.2,302.78s-.79-.41-2.07-3.53-.88-5.13-2.51-9.86-4.53-5.41-7.17-5.41a7.89,7.89,0,0,0-4.26,1.15,2.14,2.14,0,0,0-1.39,0c-.59.27-.64.47-.64.47a2.39,2.39,0,0,0-1.42,0,10.68,10.68,0,0,0-2.63,1.15c-.95.74-1.29,2.32,0,4.49,0-1.13.45-1.18.45-1.18h1c.81,0,2,.54,4.05,1.56s2,2.37,1.63,4.39a13.54,13.54,0,0,1-2.41,4.51l-1.11,2.66a5.44,5.44,0,0,0,2-.72c.54-.49.88-.85.88-.85a4.42,4.42,0,0,0,.26,2.34c.48.66,1.09,1.38,1.09,1.38a2.53,2.53,0,0,1,.48-1.8,4.33,4.33,0,0,0,.87-1.36,4,4,0,0,1,.61,1.69v1.47s1.49-1.11,1.69-1.83a7,7,0,0,0,1.36,2.16,1.78,1.78,0,0,1,.74-.9,2.86,2.86,0,0,0,1.15-1.23l.14-.35a9.42,9.42,0,0,0,1.08,1.58l.4.39a3.2,3.2,0,0,1,.41-1.2,2.71,2.71,0,0,0,.34-1.18l.95.73.33-1a8.6,8.6,0,0,0,1.63,1.49l.74.45a14.55,14.55,0,0,1-.2-1.55v-.41A13,13,0,0,1,316.2,302.78Z" transform="translate(-31 -179.5)"/><path class="h" d="M300.19,285.13s-.49,2,.67,2.36.35-.54,2.38-.4a6.22,6.22,0,0,1,2.91.77c.87.31,1.15,0,1.15,0" transform="translate(-31 -179.5)"/><path class="h" d="M301.22,287.57s.46,1.82,1.61,2.22,1.22,1.17.27,1.26a5.2,5.2,0,0,1-1.88-.22,2.06,2.06,0,0,0-1.13.22" transform="translate(-31 -179.5)"/><path class="h" d="M294.2,290.5s.45-1.58,1.6-1.18a6.32,6.32,0,0,0,3,.33c.72-.13,1.17.21,2.06.41l.89.21" transform="translate(-31 -179.5)"/><path class="h" d="M302.9,287.07s-.92,1.82.79,2,1-1.78,1-1.78" transform="translate(-31 -179.5)"/><line class="h" x1="267.16" y1="106.1" x2="267.16" y2="106.77"/><path class="h" d="M298.16,287.07s-.06.1,0,.5" transform="translate(-31 -179.5)"/><path class="x" d="M294.63,348.86s1.44-1.49,1.36-6.08l-.09-4.59,2.89,6.1a19.59,19.59,0,0,0,.41,3.54,7.46,7.46,0,0,0,1.22,1.85s1.08-.94,1.94-.47,1.31,1.5.9,2.09-2.58.95-2.58.95-.79-.46-.93-.86c-.37.45-1,.49-1.74.63s-1.2.23-1.2.23l-3.47-.82a1.7,1.7,0,0,0-1,.45,1.32,1.32,0,0,1-1,.37l-3.15-.37s-.95-2.84,1.62-3,3,1.31,3,1.31l.27.58A2.33,2.33,0,0,1,294.63,348.86Z" transform="translate(-31 -179.5)"/><path class="x" d="M310.36,350a3.73,3.73,0,0,1,.57-1.17c.45-.68,1.1-4.12,1.22-6.59a6,6,0,0,1,.94-3.42l1.53,4a14.24,14.24,0,0,0,0,3.79,11.73,11.73,0,0,0,.59,1.74,1.27,1.27,0,0,1,1.22.24,2.19,2.19,0,0,1,.67,1.27,1.57,1.57,0,0,0,1.4-.23c.5-.5.81-1,1.49-1.24a1.63,1.63,0,0,1,1.76.43A2.72,2.72,0,0,1,322,350l-2.12,1.89s0-.27-.62,0a1.65,1.65,0,0,0-.78.64,2.1,2.1,0,0,0-.9-1.09l-.72-.45-2.89.68a2.74,2.74,0,0,0-.95,0,1.55,1.55,0,0,0-.89.59,3.22,3.22,0,0,0-1.45-.41l-1-.09-2.89-.81s-.4-2.12,1.53-2.12A2.43,2.43,0,0,1,310.36,350Z" transform="translate(-31 -179.5)"/><path class="x" d="M294.63,348.82a4.52,4.52,0,0,1,2,.39c.72.42.36.24,1.06.65a.93.93,0,0,0,1,0" transform="translate(-31 -179.5)"/><path class="x" d="M315.21,348.35a1.88,1.88,0,0,0-1.13.47,4.35,4.35,0,0,1-1.49.76" transform="translate(-31 -179.5)"/><path class="x" d="M295.37,347.7a7.1,7.1,0,0,1,1.94-.42,6,6,0,0,1,1.8.21" transform="translate(-31 -179.5)"/><path class="x" d="M295.71,346a5.76,5.76,0,0,1,1.59-.34,4.63,4.63,0,0,1,1.47.17" transform="translate(-31 -179.5)"/><path class="x" d="M296,344.4a4.83,4.83,0,0,1,1.43-.34,3.75,3.75,0,0,1,1.32.17" transform="translate(-31 -179.5)"/><path class="x" d="M295.71,342.77a5.76,5.76,0,0,1,1.59-.34,5,5,0,0,1,1.47.17" transform="translate(-31 -179.5)"/><path class="x" d="M311.51,347.7a5.43,5.43,0,0,1,1.66-.39,4.79,4.79,0,0,1,1.55.19" transform="translate(-31 -179.5)"/><path class="x" d="M311.88,346.15a4.52,4.52,0,0,1,1.33-.32,3.68,3.68,0,0,1,1.23.16" transform="translate(-31 -179.5)"/><path class="x" d="M311.88,344.63a4.33,4.33,0,0,1,1.33-.31,3.4,3.4,0,0,1,1.23.16" transform="translate(-31 -179.5)"/><path class="x" d="M311.88,343.12a4.52,4.52,0,0,1,1.33-.32,3.68,3.68,0,0,1,1.23.16" transform="translate(-31 -179.5)"/><path class="y" d="M288.2,351.52a1.91,1.91,0,0,1,1.67-.67c1.17,0,1.39,1.31,1.39,1.31a1.74,1.74,0,0,0-1,1.12,4,4,0,0,0,0,2.12A3.78,3.78,0,0,1,288.2,351.52Z" transform="translate(-31 -179.5)"/><path class="y" d="M293.38,351.52a1.53,1.53,0,0,1,1.49-1c1.22,0,1.94,1.53,1.94,1.53a3.37,3.37,0,0,0-1.23,1.54,5.5,5.5,0,0,0,0,2.79A5.16,5.16,0,0,1,293.38,351.52Z" transform="translate(-31 -179.5)"/><path class="y" d="M300.68,352s.05-1.3,1-1.44a2.44,2.44,0,0,1,1.75.72,3.93,3.93,0,0,1-.49,2.21,4.13,4.13,0,0,1-1.35,1.54A3.25,3.25,0,0,0,300.68,352Z" transform="translate(-31 -179.5)"/><path class="y" d="M306.87,351.07a2,2,0,0,1,1.39-.55c.95,0,1.22,1.36,1.22,1.36a2.67,2.67,0,0,0-.94,1.24,7.12,7.12,0,0,0,0,2.28S306.1,353.6,306.87,351.07Z" transform="translate(-31 -179.5)"/><path class="y" d="M313.9,351.57a2.07,2.07,0,0,1,1.62-1.05,1.6,1.6,0,0,1,1.58.52,5.51,5.51,0,0,1-.4,2.65A1.89,1.89,0,0,1,315,355,3.66,3.66,0,0,0,313.9,351.57Z" transform="translate(-31 -179.5)"/><path class="y" d="M319.85,351.75s0-1.49.82-1.89a1.93,1.93,0,0,1,1.44-.18,3.78,3.78,0,0,1,.36,2.84,3.07,3.07,0,0,1-1.44,1.8S321.66,352.11,319.85,351.75Z" transform="translate(-31 -179.5)"/><path class="z" d="M308.54,346.61V348c0,.63.27.31.81-.27a32,32,0,0,0,3-5.31,10.08,10.08,0,0,0,.95-3.35l-.28-3h-2.48Z" transform="translate(-31 -179.5)"/><path class="z" d="M308.57,341.13s-.54,3.68-.49,4.53.14,1.26.68.68a23.63,23.63,0,0,0,2.53-5.06,37.43,37.43,0,0,0,1.08-4.81,4.46,4.46,0,0,0-.45-2h-1.56Z" transform="translate(-31 -179.5)"/><path class="z" d="M308.64,332.79s-.47,5.48-.56,7,0,1.82.95.89a21.57,21.57,0,0,0,3.34-6.3l-.77-4.14-1-1.73h-.56Z" transform="translate(-31 -179.5)"/><path class="r" d="M314.62,332.09a26.72,26.72,0,0,0,1,4.15,24,24,0,0,0,3.11,6.41c.74,1.09.59-.3.45-1.92s-1.45-8.78-1.45-8.78l-4.15-8.79s-3.95-.74-3.09,6.08c1.3,10.38,5.21,16.93,7.16,18.63,2.12,1.85,1.36-2,1.36-2a3.71,3.71,0,0,0,.17-2.86" transform="translate(-31 -179.5)"/><path class="m" d="M319,345.88s.76,3.84-1.36,2c-1.95-1.7-5.86-8.25-7.16-18.63-.86-6.82,3.09-6.08,3.09-6.08l4.15,8.79s1.32,7.16,1.45,8.78.29,3-.45,1.92a24,24,0,0,1-3.11-6.41,26.72,26.72,0,0,1-1-4.15" transform="translate(-31 -179.5)"/><path class="m" d="M319.17,343c1.13,5.37-2.18,2.27-3.87-2a43.87,43.87,0,0,1-2.93-10.49" transform="translate(-31 -179.5)"/><path class="z" d="M301.56,344.68s.53,1.25.8,2.15.31,2.26-1,1.13-4.33-6.48-4.33-8.61a3.55,3.55,0,0,1,1-2.88l1.74,2.61Z" transform="translate(-31 -179.5)"/><path class="z" d="M302.19,340.64s.48,3.13.44,3.71-.63,1.09-1.31,0-3.52-6.08-3.63-7.57,2.1-2.93,2.1-2.93Z" transform="translate(-31 -179.5)"/><path class="z" d="M301.88,331.93s.66,5.75.75,6.92.26,2.53-.75,1.54-3.08-4.24-3.22-6,1.52-5.69,1.52-5.69" transform="translate(-31 -179.5)"/><path class="r" d="M291.27,345.35a4.43,4.43,0,0,1,0,2.09s0,2.82,1.48,1.33,6.38-12.13,7.32-18.94-3.12-6.08-3.12-6.08l-4.2,8.79s-1.62,9.74-1.76,11.36.14,1.9.88.81,2.78-7.44,3.45-9.6L296,333" transform="translate(-31 -179.5)"/><path class="m" d="M291.27,347.44s0,2.82,1.48,1.33,6.38-12.13,7.32-18.94-3.12-6.08-3.12-6.08l-4.2,8.79s-1.62,9.74-1.76,11.36.14,1.9.88.81,2.78-7.44,3.45-9.6L296,333" transform="translate(-31 -179.5)"/><path class="z" d="M296.54,327.4s-1,1.47-1.74,2.61l-.56.77a18,18,0,0,1-1.49,1.76,8.46,8.46,0,0,1,.8-5.57c1.5-2.82,5.29-2,5.29-2l.54,3.52a15.32,15.32,0,0,1-2.3,2.44l-1.08.81a2.92,2.92,0,0,1-.95-2" transform="translate(-31 -179.5)"/><path class="z" d="M299.38,328.48a10.29,10.29,0,0,0,2,3.11l.95.68a46.87,46.87,0,0,0-.54-5.82l-2.44-2.7Z" transform="translate(-31 -179.5)"/><path class="z" d="M292.75,327.4s1.36-5.95,5-5.95,4.33,3.78,4.6,5l.27,1.22a5.63,5.63,0,0,1-1.76-.95l-.27-.4s.13.54-.54,1.35l-.68.81a8.5,8.5,0,0,0-.73-1.08,1.59,1.59,0,0,1-.35-.81,6.51,6.51,0,0,0-1.35.54l-.41.27a5.65,5.65,0,0,1-1-.95l-.4-.54A21.22,21.22,0,0,1,292.75,327.4Z" transform="translate(-31 -179.5)"/><path class="m" d="M291.53,345.15c-1.08,4.71,1.37,1.64,2.94-2.64,1.34-3.7,3.54-11.32,3.54-11.32" transform="translate(-31 -179.5)"/><path class="z" d="M308.67,327a39.85,39.85,0,0,0-.59,4.6c0,1.62-.31,2.34.77,1a20.33,20.33,0,0,0,3.25-5.86c.4-1.67-1.54-2.35-1.54-2.35Z" transform="translate(-31 -179.5)"/><path class="z" d="M312,327.62a24.23,24.23,0,0,0,2.39,3.57c1.13,1.26,1.76,2,2,1.35a5.4,5.4,0,0,0,0-3.16l-.36-.72s.9,1.72,1.35,2.53.77.67.45-1.63a13.08,13.08,0,0,0-1.3-4.1L314,324.33l-2.66,1.27Z" transform="translate(-31 -179.5)"/><path class="z" d="M308.08,327.62a7.22,7.22,0,0,0,1.58-.85,5.12,5.12,0,0,0,1-1s.68,1,1,1.44l.31.45s.59-.49,1-.94.41-.72.41-.72a3.92,3.92,0,0,0,1,1.3,4,4,0,0,1,.85.75,9.12,9.12,0,0,0,.36-1.47l.1-.67s.76-.05.94.13a1.32,1.32,0,0,0,.45.27s-1.12-4.82-4.51-4.82S308,326.18,308.08,327.62Z" transform="translate(-31 -179.5)"/><path class="m" d="M268,291.49c-.12.32-.38.59-.38.94a.82.82,0,0,0,.44.67,2.47,2.47,0,0,0,.79.27" transform="translate(-31 -179.5)"/><path class="m" d="M268.34,294.21c-.25,0-.34.35-.28.58a1.09,1.09,0,0,0,.95.82" transform="translate(-31 -179.5)"/><path class="m" d="M269.31,296.24a.42.42,0,0,0,.09.49,1,1,0,0,0,.48.24,5.06,5.06,0,0,0,1,.19" transform="translate(-31 -179.5)"/><path class="m" d="M271.13,298a.89.89,0,0,0,.59.88.9.9,0,0,0,1-.34" transform="translate(-31 -179.5)"/><path class="m" d="M273.11,300.18a.52.52,0,0,0-.06.76,1.13,1.13,0,0,0,.79.34" transform="translate(-31 -179.5)"/><path class="m" d="M274.68,302.44a.66.66,0,0,0,.94.71" transform="translate(-31 -179.5)"/><path class="m" d="M278.66,305.15a.92.92,0,0,0,.51.75.91.91,0,0,0,.9-.1" transform="translate(-31 -179.5)"/><path class="m" d="M279.64,304a.75.75,0,0,0,1.05.91" transform="translate(-31 -179.5)"/><path class="m" d="M281.34,305.33a1.8,1.8,0,0,0,1.68.38" transform="translate(-31 -179.5)"/><path class="m" d="M281.6,306.38a2.33,2.33,0,0,0,2.06.31l.08.37a1.42,1.42,0,0,0,1.52.15" transform="translate(-31 -179.5)"/><path class="m" d="M281.44,307.19a2.26,2.26,0,0,0,1.78.64" transform="translate(-31 -179.5)"/><path class="m" d="M296.76,305.29a1.08,1.08,0,0,0,.58.85,1.06,1.06,0,0,0,1-.06" transform="translate(-31 -179.5)"/><path class="m" d="M295.4,306.68a.73.73,0,0,0,.38,1,1.21,1.21,0,0,0,1.14-.19" transform="translate(-31 -179.5)"/><path class="m" d="M292.06,306.12a.55.55,0,0,0-.25.82.73.73,0,0,0,.41.25.84.84,0,0,0,.89-.15.9.9,0,0,0,.71.58.89.89,0,0,0,.84-.37" transform="translate(-31 -179.5)"/><path class="m" d="M293.13,308.49a.37.37,0,0,0,.12.53,1.07,1.07,0,0,0,.59.13,1.2,1.2,0,0,0,.88-.21" transform="translate(-31 -179.5)"/><path class="m" d="M286.5,306.77a.73.73,0,0,0,.6.68,2.18,2.18,0,0,0,1-.09c-.11.21.13.44.36.51a1.5,1.5,0,0,0,1.41-.29c0,.22.18.39.38.47a1.37,1.37,0,0,0,1.18-.12" transform="translate(-31 -179.5)"/><path class="m" d="M290.66,309.2a.56.56,0,0,0,.21.54,1.21,1.21,0,0,0,1.54.26" transform="translate(-31 -179.5)"/><path class="m" d="M295.7,311.39a.64.64,0,0,0,.33.82,1.86,1.86,0,0,0,1,.11c-.08.3.22.6.53.64a1.75,1.75,0,0,0,.91-.22" transform="translate(-31 -179.5)"/><path class="m" d="M291.44,311a1.48,1.48,0,0,0,2.5.9,1.07,1.07,0,0,0,1.79.87" transform="translate(-31 -179.5)"/><path class="m" d="M296.37,313.44a1.08,1.08,0,0,0,.74,1,2.54,2.54,0,0,0,1.34,0" transform="translate(-31 -179.5)"/><path class="m" d="M285.9,309.25c-.2.32-.32.78,0,1a.7.7,0,0,0,.28.12,1.23,1.23,0,0,0,1.18-.13.55.55,0,0,0-.13.76.88.88,0,0,0,.77.31,2.16,2.16,0,0,0,.8-.3,1.16,1.16,0,0,0-.12.78,1.94,1.94,0,0,0,2.07-.17" transform="translate(-31 -179.5)"/><path class="m" d="M290.92,312.65c-.26.34,0,.88.45,1a2.16,2.16,0,0,0,1.27-.13" transform="translate(-31 -179.5)"/><path class="m" d="M293.67,313.48a.7.7,0,0,0,.22.81,1.13,1.13,0,0,0,.86.23,1.89,1.89,0,0,0,.83-.27" transform="translate(-31 -179.5)"/><path class="m" d="M292.35,314.34a.79.79,0,0,0,.5.85,2.23,2.23,0,0,0,1.06.09" transform="translate(-31 -179.5)"/><path class="m" d="M276,304a1.41,1.41,0,0,0,1.46.54" transform="translate(-31 -179.5)"/><path class="m" d="M314.62,305.82c0,.13-.05.26-.05.39a.6.6,0,0,0,.78.44,1.59,1.59,0,0,0,.76-.67" transform="translate(-31 -179.5)"/><path class="m" d="M312.58,308.87a.74.74,0,0,0,.81.69c.53-.07.79-.67,1-1.18a1.53,1.53,0,0,0,1.95.46s.09-.06.1-.11-.06-.1-.1-.06" transform="translate(-31 -179.5)"/><path class="m" d="M317.09,307.12a.81.81,0,0,0,.45,1.12,1.22,1.22,0,0,0,1.26-.37" transform="translate(-31 -179.5)"/><path class="m" d="M319.61,306.87a1.09,1.09,0,0,0-.05.69,1.23,1.23,0,0,0,1.33-.1c-.14.23.08.56.35.61a.91.91,0,0,0,.73-.28.69.69,0,0,0,.86.32,1.17,1.17,0,0,0,.67-.72.72.72,0,0,0,.72.45.71.71,0,0,0,.6-.6" transform="translate(-31 -179.5)"/><path class="m" d="M320.8,309.07c0,.25,0,.54.26.65a.62.62,0,0,0,.6-.15,3.52,3.52,0,0,0,.52-.5,1.41,1.41,0,0,0,2,0" transform="translate(-31 -179.5)"/><path class="m" d="M325.88,307.87a.79.79,0,0,0,.49,1c.53.17,1.06-.27,1.39-.73" transform="translate(-31 -179.5)"/><path class="m" d="M329.71,305.37a4.16,4.16,0,0,1-.75.87,1.44,1.44,0,0,1-1.06.35.88.88,0,0,1-.77-.74" transform="translate(-31 -179.5)"/><path class="m" d="M328.91,304c.21.39.54.84,1,.78a1,1,0,0,0,.55-.39,3.08,3.08,0,0,0,.49-.82.78.78,0,0,0,.88.69,1.44,1.44,0,0,0,1-.7" transform="translate(-31 -179.5)"/><path class="m" d="M332.19,302.23c-.12.34.27.71.63.64a.86.86,0,0,0,.63-.78" transform="translate(-31 -179.5)"/><path class="m" d="M313.69,312.79a1,1,0,0,0,1.22.56,1.13,1.13,0,0,0,.72-.78" transform="translate(-31 -179.5)"/><path class="m" d="M313.32,314.16c0,.47.45,1,.81.95a1.25,1.25,0,0,0,1-1.05" transform="translate(-31 -179.5)"/><path class="m" d="M316.05,314.75c0,.23.16.32.33.43a.8.8,0,0,0,.83,0,.81.81,0,0,0,.4-.72" transform="translate(-31 -179.5)"/><path class="m" d="M318,314a1,1,0,0,0,.79.44.84.84,0,0,0,.71-.88" transform="translate(-31 -179.5)"/><path class="m" d="M320.26,313.15a1,1,0,0,0,1.79-.82" transform="translate(-31 -179.5)"/><path class="m" d="M320.82,311.71a1.26,1.26,0,0,0,1.13.6.83.83,0,0,0,.74-.93c0,.24.29.38.53.41a1.12,1.12,0,0,0,.7-.13.61.61,0,0,0,.3-.62" transform="translate(-31 -179.5)"/><path class="m" d="M334.42,301.79c1.54.69,1.59-.91,1.42-1.12" transform="translate(-31 -179.5)"/><path class="m" d="M336.67,300.25a.56.56,0,0,0,.64,0,1.94,1.94,0,0,0,.59-.55,1.39,1.39,0,0,0,.33-1.53" transform="translate(-31 -179.5)"/><path class="m" d="M339.24,297.72a.85.85,0,0,0,1.14-.23c.4-.55.25-.78.27-1.19" transform="translate(-31 -179.5)"/><path class="m" d="M341.73,295.36a.76.76,0,0,0,1-.22.93.93,0,0,0,.17-.38,1.06,1.06,0,0,0,0-.66.58.58,0,0,0-.5-.39c.48-.11.84-.22,1-.57s.24-1.64-.85-1.64" transform="translate(-31 -179.5)"/><path class="m" d="M343,290.59a.91.91,0,0,0,1.11-.75c0-.26-.12-.57-.38-.58" transform="translate(-31 -179.5)"/><path class="m" d="M310.22,318.12a.84.84,0,0,0,.7.65.82.82,0,0,0,.82-.47c.07-.17.11-.37.27-.45.2.4,1.1.73,1.45.44a.69.69,0,0,0,.23-.49" transform="translate(-31 -179.5)"/><path class="m" d="M310.1,320.4a.89.89,0,0,0,1.38-.25.58.58,0,0,0,1-.19" transform="translate(-31 -179.5)"/><path class="m" d="M313,320.35a1,1,0,0,0,.8.17.59.59,0,0,0,.45-.63" transform="translate(-31 -179.5)"/><path class="m" d="M300.69,321.51a1.1,1.1,0,0,0,.42.62.6.6,0,0,0,.65-.07,1,1,0,0,0,.25-.5" transform="translate(-31 -179.5)"/><path class="m" d="M302.25,323.09a.74.74,0,0,0,.7.44.76.76,0,0,0,.65-.51" transform="translate(-31 -179.5)"/><path class="m" d="M304.42,323.05a.31.31,0,0,0,.11.21.7.7,0,0,0,.6.18.67.67,0,0,0,.49-.38" transform="translate(-31 -179.5)"/><path class="m" d="M306.19,323.45c.05,0,.1,0,.14.06a.64.64,0,0,0,1-.23c0,.15.1.29.24.34a.54.54,0,0,0,.43,0,.39.39,0,0,0,.26-.32" transform="translate(-31 -179.5)"/><path class="m" d="M302.64,324.25a.7.7,0,0,0,1.22.16" transform="translate(-31 -179.5)"/><path class="m" d="M305.73,325a.65.65,0,0,0,.7.26,1.13,1.13,0,0,0,.63-.47.74.74,0,0,0,.52.25.35.35,0,0,0,.34-.17" transform="translate(-31 -179.5)"/><path class="m" d="M302.85,325.67a.64.64,0,0,0,.47.37.67.67,0,0,0,.57-.2.46.46,0,0,0,.85.09" transform="translate(-31 -179.5)"/><path class="m" d="M305.65,326.05c0,.1.07.2.16.25a.62.62,0,0,0,.76-.14.7.7,0,0,0,.28.31.45.45,0,0,0,.2,0,.77.77,0,0,0,.52-.06s0,0,0,0,0,0,0,0" transform="translate(-31 -179.5)"/><path class="m" d="M303.22,327.13a1.15,1.15,0,0,0,.37.45.71.71,0,0,0,.62.08.74.74,0,0,0,.44-.44" transform="translate(-31 -179.5)"/><path class="m" d="M305.6,327.24s0,.06.06.09a.86.86,0,0,0,.4.18.43.43,0,0,0,.39-.2.31.31,0,0,0,.15.22.76.76,0,0,0,.26.06.62.62,0,0,0,.61-.33" transform="translate(-31 -179.5)"/><path class="m" d="M302.66,328.57a.47.47,0,0,0,.34.27.49.49,0,0,0,.42-.12.56.56,0,0,0,.57.42,1.12,1.12,0,0,0,.69-.31" transform="translate(-31 -179.5)"/><path class="m" d="M305.54,328.76a.72.72,0,0,0,.49.19.63.63,0,0,0,.38-.25c0,.07.06.12.12.16a1.09,1.09,0,0,0,.39.19,1,1,0,0,0,.74-.34" transform="translate(-31 -179.5)"/><path class="m" d="M305.46,330a.74.74,0,0,0,.58.3.71.71,0,0,0,.58-.31s0-.08,0-.09" transform="translate(-31 -179.5)"/><path class="m" d="M303.08,330.71a1.11,1.11,0,0,0,.56.47.76.76,0,0,0,.69-.21.57.57,0,0,0,.24-.41" transform="translate(-31 -179.5)"/><path class="m" d="M303.39,331.93a.52.52,0,0,0,.37.4.86.86,0,0,0,.55,0,.52.52,0,0,0,.36-.4" transform="translate(-31 -179.5)"/><path class="m" d="M305.91,331.74a.81.81,0,0,0,.61.38.78.78,0,0,0,.67-.27" transform="translate(-31 -179.5)"/><path class="m" d="M306.83,331.36a.41.41,0,0,0,.62-.05" transform="translate(-31 -179.5)"/><path class="m" d="M302.79,333.94a1.33,1.33,0,0,0,.58.29.79.79,0,0,0,.79-.51c.1.17.34.21.54.23a1,1,0,0,0,.35,0,.38.38,0,0,0,.25-.23" transform="translate(-31 -179.5)"/><path class="m" d="M306.23,333.63a1,1,0,0,0,1.27,0,.21.21,0,0,0,.11-.19l-.07,0" transform="translate(-31 -179.5)"/><path class="m" d="M302.83,335.29c.19.08.3.3.5.36s.4-.1.57-.23a.67.67,0,0,0,.61.25.89.89,0,0,0,.58-.32" transform="translate(-31 -179.5)"/><path class="m" d="M305.84,336.35s0,0,0,0,0,0,.06,0a.88.88,0,0,0,1.23-.19" transform="translate(-31 -179.5)"/><path class="m" d="M303.28,337.09a1,1,0,0,0,.61.35.64.64,0,0,0,.62-.27" transform="translate(-31 -179.5)"/><path class="m" d="M303.44,338.58c0,.08.1.12.18.15a1,1,0,0,0,.52,0,.43.43,0,0,0,.36-.34" transform="translate(-31 -179.5)"/><path class="m" d="M305.71,338.09c.05,0,.09.05.13.09a.79.79,0,0,0,.63.28.83.83,0,0,0,.62-.31" transform="translate(-31 -179.5)"/><path class="m" d="M295.77,315.32a.91.91,0,0,0,0,.82,1.1,1.1,0,0,0,.63.53.66.66,0,0,0,.77-.15,1.48,1.48,0,0,0,.62,1,1.16,1.16,0,0,0,.42.07,1,1,0,0,0,.79-.31" transform="translate(-31 -179.5)"/><path class="m" d="M294.51,316.71a.67.67,0,0,0,0,.5,1.84,1.84,0,0,0,.17.22,2.55,2.55,0,0,0,.3.26,1.36,1.36,0,0,0,1.4.07s.06-.06,0-.07" transform="translate(-31 -179.5)"/><path class="m" d="M295.28,319.37a.7.7,0,0,0,.28.67.69.69,0,0,0,.73,0,.23.23,0,0,0,.14-.19" transform="translate(-31 -179.5)"/><path class="m" d="M297.45,319.83a.94.94,0,0,0,1.72.05.81.81,0,0,0,.48.39,1.08,1.08,0,0,0,.53.08.47.47,0,0,0,.39-.32" transform="translate(-31 -179.5)"/><path class="m" d="M294.32,320.82a.55.55,0,0,0,.2.6,1.13,1.13,0,0,0,.63.21.58.58,0,0,0,.26,0,.24.24,0,0,0,.18-.16" transform="translate(-31 -179.5)"/></svg>